<?xml version="1.0" encoding="utf-8"?>
<!-- Generator: Adobe Illustrator 18.1.1, SVG Export Plug-In . SVG Version: 6.00 Build 0)  -->
<!DOCTYPE svg PUBLIC "-//W3C//DTD SVG 1.1//EN" "http://www.w3.org/Graphics/SVG/1.1/DTD/svg11.dtd">
<svg version="1.1" id="Layer_2" xmlns="http://www.w3.org/2000/svg" xmlns:xlink="http://www.w3.org/1999/xlink" x="0px" y="0px"
	 width="151px" height="32px" viewBox="0 0 151 32" enable-background="new 0 0 151 32" xml:space="preserve">
<g>
	<path fill="#007DCD" d="M34.9,8.2c0,0.1-0.1,0.2-0.2,0.2h-3.4c-0.1,0-0.2-0.1-0.2-0.2V4.6c0-0.1,0.1-0.2,0.2-0.2h3.4
		c0.1,0,0.2,0.1,0.2,0.2V8.2z"/>
	<path fill="#007DCD" d="M37.9,14.7c0,0.1-0.1,0.2-0.2,0.2h-3.4c-0.1,0-0.2-0.1-0.2-0.2V11c0-0.1,0.1-0.2,0.2-0.2h3.4
		c0.1,0,0.2,0.1,0.2,0.2V14.7z"/>
	<path fill="#007DCD" d="M6.1,8.4c0,0.1-0.1,0.2-0.2,0.2H2.4c-0.1,0-0.2-0.1-0.2-0.2V4.7c0-0.1,0.1-0.2,0.2-0.2h3.4
		c0.1,0,0.2,0.1,0.2,0.2V8.4z"/>
	<path fill="#007DCD" d="M118.5,24.8c0,0.4-0.1,0.5-0.5,0.5h-2c-0.4,0-0.5-0.1-0.5-0.5v-12h-2.9c-0.3,0-0.4-0.1-0.4-0.4v-1.9
		c0-0.3,0.1-0.4,0.4-0.4h9.1c0.4,0,0.5,0,0.5,0.3c0,0.1,0,0.1-0.1,0.3l-0.5,1.7c-0.1,0.4-0.3,0.4-0.5,0.4h-2.7L118.5,24.8
		L118.5,24.8z"/>
	<path fill="#007DCD" d="M125.5,24.9c0,0.2,0,0.3-0.3,0.3H123c-0.3,0-0.3-0.1-0.3-0.3v-6.7c0-2.4-0.6-2.8-0.6-3.3
		c0-0.1,0.1-0.1,0.2-0.2l1.7-0.7c0.1,0,0.2-0.1,0.3-0.1c0.3,0,0.7,1,0.8,1.7c0.4-0.5,1.2-1.7,2.7-1.7c0.6,0,1.3,0.2,1.3,0.5
		c0,0.1,0,0.2,0,0.2l-0.7,1.9c0,0.1-0.1,0.2-0.2,0.2c-0.1,0-0.5-0.2-1-0.2c-0.7,0-1.4,0.8-1.7,1.1L125.5,24.9L125.5,24.9z"/>
	<path fill="#007DCD" d="M136.3,25.5c-0.1,0-0.2,0.1-0.3,0.1c-0.2,0-0.5-0.8-0.6-1.3c-0.4,0.4-1.2,1.3-2.9,1.3c-2,0-3.3-1.3-3.3-3.4
		c0-3.7,4-3.7,5.7-3.7v-0.7c0-1-0.2-1.6-1.6-1.6c-1.2,0-2.4,0.7-2.7,0.7c-0.1,0-0.2-0.1-0.2-0.2l-0.4-1.3c0-0.1-0.1-0.2-0.1-0.3
		c0-0.5,2.2-1,3.9-1c2.7,0,3.8,1.2,3.8,3.5v4.2c0,2.1,0.6,2.4,0.6,2.9c0,0.1-0.1,0.1-0.2,0.2L136.3,25.5z M135,20.3
		c-0.5,0-3.1-0.2-3.1,1.8c0,0.9,0.6,1.5,1.5,1.5c0.8,0,1.4-0.6,1.6-0.8V20.3z"/>
	<path fill="#007DCD" d="M148.6,24c0.1,0.1,0.2,0.2,0.2,0.3c0,0.1,0,0.1-0.1,0.2l-1.9,1c-0.1,0-0.2,0.1-0.3,0.1s-0.2-0.1-0.3-0.2
		l-4-5.3h0v4.8c0,0.2,0,0.3-0.3,0.3h-2.2c-0.3,0-0.3-0.1-0.3-0.3V10.1c0-0.3,0.1-0.4,0.4-0.4l1.9-0.4c0.1,0,0.3-0.1,0.4-0.1
		c0.1,0,0.2,0.1,0.2,0.5v8.7l4.2-4.3c0.1-0.1,0.3-0.2,0.3-0.2c0.1,0,0.2,0.1,0.4,0.2l1.1,0.9c0.1,0.1,0.1,0.1,0.1,0.2
		c0,0.1-0.1,0.2-0.2,0.3l-3.6,3.5L148.6,24z"/>
	<path fill="#007DCD" d="M51.4,12.9c-0.1,0.1-0.1,0.2-0.2,0.2c-0.1,0-1.5-1-3.1-1c-1,0-2.1,0.4-2.1,1.7c0,1.7,2.6,2,4.5,3.4
		c1.1,0.8,1.9,2,1.9,3.7c0,2.8-2,4.6-4.8,4.6c-2.2,0-4.6-1-4.6-1.3c0-0.1,0.1-0.2,0.1-0.4l0.5-1.5c0-0.1,0.1-0.2,0.2-0.2
		c0.1,0,1.8,1,3.7,1c1.2,0,2-0.7,2-2c0-2-2.2-2.2-4.5-3.5c-1.2-0.7-1.9-1.6-1.9-3.4c0-3.2,2.3-4.5,4.9-4.5c2.1,0,4.2,1,4.2,1.4
		c0,0.1,0,0.1-0.1,0.3L51.4,12.9z"/>
	<path fill="#007DCD" d="M62.5,24.9c0,0.2,0,0.3-0.3,0.3H60c-0.3,0-0.3-0.1-0.3-0.3v-6.8c0-0.8-0.1-1.9-1.2-1.9
		c-0.9,0-1.6,0.7-1.9,0.9v7.7c0,0.2,0,0.3-0.3,0.3h-2.2c-0.3,0-0.3-0.1-0.3-0.3V10.1c0-0.3,0.1-0.3,0.4-0.4l1.9-0.4
		c0.1,0,0.3-0.1,0.3-0.1c0.2,0,0.2,0.1,0.2,0.5v5.5c0.6-0.5,1.5-1.3,3-1.3c2.3,0,2.9,1.6,2.9,3.5L62.5,24.9L62.5,24.9z"/>
	<path fill="#007DCD" d="M68.9,25.6c-3,0-4.8-2.3-4.8-5.8s1.8-5.8,4.8-5.8c3,0,4.8,2.3,4.8,5.8C73.7,23.3,71.8,25.6,68.9,25.6
		 M70.7,19.8c0-2-0.3-3.6-1.8-3.6s-1.8,1.6-1.8,3.6s0.3,3.6,1.8,3.6S70.7,21.9,70.7,19.8"/>
	<path fill="#007DCD" d="M77.8,29.1c0,0.3-0.1,0.4-0.4,0.4l-1.9,0.4c-0.1,0-0.3,0.1-0.4,0.1s-0.1-0.1-0.1-0.5V18.3
		c0-3.1-0.4-2.9-0.4-3.4c0-0.1,0.1-0.2,0.2-0.3l1.7-0.5c0.1,0,0.2-0.1,0.3-0.1c0.3,0,0.4,0.4,0.7,1.1c0.5-0.5,1.4-1.1,2.8-1.1
		c2.4,0,3.8,1.9,3.8,5.6c0,3.9-1.2,6-4.1,6c-1.3,0-1.8-0.3-2.3-0.6L77.8,29.1L77.8,29.1z M77.8,23c0.4,0.2,0.8,0.4,1.6,0.4
		c1.5,0,1.9-1.1,1.9-3.7c0-2.3-0.4-3.5-1.8-3.5c-0.9,0-1.5,0.5-1.8,0.8L77.8,23L77.8,23z"/>
	<path fill="#007DCD" d="M88.2,29.1c0,0.3-0.1,0.4-0.4,0.4L86,29.8c-0.1,0-0.3,0.1-0.4,0.1c-0.1,0-0.1-0.1-0.1-0.5V18.3
		c0-3.1-0.4-2.9-0.4-3.4c0-0.1,0.1-0.2,0.3-0.3l1.7-0.5c0.1,0,0.2-0.1,0.3-0.1c0.3,0,0.4,0.4,0.7,1.1c0.5-0.5,1.4-1.1,2.8-1.1
		c2.4,0,3.8,1.9,3.8,5.6c0,3.9-1.2,6-4.1,6c-1.3,0-1.8-0.3-2.3-0.6L88.2,29.1L88.2,29.1z M88.2,23c0.4,0.2,0.7,0.4,1.6,0.4
		c1.5,0,1.9-1.1,1.9-3.7c0-2.3-0.4-3.5-1.8-3.5c-0.9,0-1.5,0.5-1.8,0.8L88.2,23L88.2,23z"/>
	<path fill="#007DCD" d="M104.4,24.1c0,0.1,0.1,0.1,0.1,0.2c0,0.6-2.2,1.3-3.9,1.3c-2.9,0-4.9-1.6-4.9-5.7c0-3.5,1.9-5.9,4.8-5.9
		c3.7,0,4.4,3.4,4.4,6c0,0.4-0.1,0.5-0.5,0.5h-5.9c0,1.2,0.4,2.7,2.4,2.7c1.6,0,2.5-0.7,2.8-0.7c0.1,0,0.2,0.1,0.2,0.2L104.4,24.1z
		 M101.9,18.5c0-0.9-0.1-2.5-1.6-2.5c-1.7,0-1.8,1.9-1.9,2.5H101.9z"/>
	<path fill="#007DCD" d="M109.6,24.9c0,0.2,0,0.3-0.3,0.3h-2.2c-0.3,0-0.3-0.1-0.3-0.3v-6.7c0-2.4-0.6-2.8-0.6-3.3
		c0-0.1,0.1-0.1,0.2-0.2l1.7-0.7c0.1,0,0.2-0.1,0.3-0.1c0.3,0,0.7,1,0.8,1.7c0.4-0.5,1.2-1.7,2.7-1.7c0.6,0,1.3,0.2,1.3,0.5
		c0,0.1,0,0.2,0,0.2l-0.7,1.9c0,0.1-0.1,0.2-0.2,0.2c-0.1,0-0.5-0.2-1-0.2c-0.7,0-1.4,0.8-1.7,1.1L109.6,24.9L109.6,24.9z"/>
	<path fill="#91C3E6" d="M7.1,25.2c5.2-9.1,13.4-15.8,23.2-18.6C18.4,7.9,8.1,15,1.8,25.2H7.1z"/>
	<path fill="#91C3E6" d="M29.9,25.2h5.3C28.8,15,18.6,7.9,6.7,6.6C16.4,9.4,24.7,16.1,29.9,25.2"/>
	<path fill="#91C3E6" d="M18.4,25.2c3.8-5.4,8.9-9.7,14.9-12.1c-7.8,1.5-14.6,5.9-19.6,12.1H18.4z"/>
</g>
<g>
</g>
<g>
</g>
<g>
</g>
<g>
</g>
<g>
</g>
<g>
</g>
<g>
</g>
<g>
</g>
<g>
</g>
<g>
</g>
<g>
</g>
<g>
</g>
<g>
</g>
<g>
</g>
<g>
</g>
</svg>
