<svg xmlns="http://www.w3.org/2000/svg" width="858.9" height="1000" viewBox="0 0 858.9 1000"><path d="M824.2 998H184.5c-19.2 0-34.7-15.6-34.7-34.7V825.4c0-19.2 15.6-34.7 34.7-34.7s34.7 15.6 34.7 34.7v103.1h570.2v-857H219.2v104.4c0 19.2-15.6 34.7-34.7 34.7s-34.7-15.6-34.7-34.7V36.7c0-19.2 15.6-34.7 34.7-34.7h639.7c19.2 0 34.7 15.6 34.7 34.7v926.5c0 19.2-15.6 34.8-34.7 34.8z"/><path d="M383.5 760.7c-8.9 0-17.8-3.4-24.6-10.2-13.6-13.6-13.6-35.5 0-49.1L522.3 538H25.8c-19.2 0-34.7-15.6-34.7-34.7s15.6-34.7 34.7-34.7h496.5L359 305.2c-13.6-13.6-13.6-35.5 0-49.1 13.6-13.6 35.5-13.6 49.1 0l222.7 222.6c0 .1.1.2.2.2 0 0-.3-.1.1.1 3.2 3.3 5.6 7 7.2 11 0 0 .1 0 0 .1 1.5 3.7 2.4 7.7 2.5 11.9v2.2c-.1 4.2-1 8.2-2.5 11.9-1.6 4-4.1 7.8-7.3 11.1l-.1.1c-.1.1-.1.2-.2.2l-222.6 223a34.68 34.68 0 0 1-24.6 10.2z"/></svg>