<svg xmlns="http://www.w3.org/2000/svg" width="1000" height="1000" viewBox="0 0 1000 1000"><path fill="#0AAAFF" d="M500 949.5C252.2 949.5 50.5 747.9 50.5 500S252.2 50.5 500 50.5 949.5 252.2 949.5 500 747.9 949.5 500 949.5zM238.4 798.7c69.9 61.3 161.5 98.6 261.6 98.6 100.1 0 191.7-37.2 261.6-98.6l-91.8-91.8c-46.2 38.1-105.5 60.9-169.9 60.9S376.3 744.9 330 706.9l-91.6 91.8zm468.4-128.8l91.8 91.8c61.4-70 98.6-161.5 98.6-261.7S860 308.2 798.6 238.3l-91.8 91.8c38.1 46.2 60.9 105.5 60.9 169.9.1 64.4-22.8 123.6-60.9 169.9zM201.4 238.3C140 308.2 102.8 399.9 102.8 500s37.2 191.7 98.6 261.7l91.8-91.8c-38.1-46.2-60.9-105.5-60.9-169.9s22.9-123.6 60.9-169.9l-91.8-91.8zM500 284.5c-118.8 0-215.5 96.7-215.5 215.5S381.2 715.5 500 715.5 715.5 618.8 715.5 500 618.8 284.5 500 284.5zm-261.6-83.1l91.8 91.8c46.2-38.1 105.4-60.9 169.9-60.9 64.4 0 123.6 22.9 169.9 60.9l91.8-91.8C691.7 140 600.1 102.8 500 102.8c-100.1 0-191.7 37.2-261.6 98.6z"/></svg>