<svg xmlns="http://www.w3.org/2000/svg" width="1000" height="1000" viewBox="0 0 1000 1000"><path d="M26.2 100.6h948v646.5h-948V100.6zM7.3 766.1h986V81.7H7.3v684.4z"/><path d="M993.2 770.8H7.3c-2.6 0-4.7-2.1-4.7-4.7V81.7c0-2.6 2.1-4.7 4.7-4.7h986c2.6 0 4.7 2.1 4.7 4.7v684.4c0 2.6-2.2 4.7-4.8 4.7zM12 761.3h976.5V86.4H12v674.9zm962.3-9.4h-948c-2.6 0-4.7-2.1-4.7-4.7V100.6c0-2.6 2.1-4.7 4.7-4.7h948c2.6 0 4.7 2.1 4.7 4.7v646.5c0 2.6-2.1 4.8-4.7 4.8zM31 742.4h938.6v-637H31v637z"/><path d="M680.7 987c-2.3 0-4.7-.6-6.9-1.8l-173.5-96.4-173.5 96.4c-6.9 3.8-15.5 1.4-19.3-5.5-3.8-6.9-1.3-15.5 5.5-19.3l173-96.2v-105c0-7.9 6.4-14.2 14.2-14.2 7.9 0 14.2 6.4 14.2 14.2v105l173.1 96.2c6.9 3.8 9.3 12.5 5.5 19.3-2.5 4.7-7.3 7.3-12.3 7.3zM500.3 101.8c-7.9 0-14.2-6.4-14.2-14.2V27.9c0-7.9 6.4-14.2 14.2-14.2 7.9 0 14.2 6.4 14.2 14.2v59.7c0 7.9-6.4 14.2-14.2 14.2zM765.7 309.8c-63 0-114.1 51.1-114.1 114.1S702.7 538 765.7 538s114.1-51.1 114.1-114.1-51.1-114.1-114.1-114.1m0 19c52.4 0 95.1 42.7 95.1 95.1S818.1 519 765.7 519c-52.4 0-95.1-42.7-95.1-95.1s42.7-95.1 95.1-95.1"/><path d="M765.7 542.7c-65.5 0-118.8-53.3-118.8-118.8s53.3-118.8 118.8-118.8 118.8 53.3 118.8 118.8-53.3 118.8-118.8 118.8zm0-228.2c-60.3 0-109.3 49.1-109.3 109.3s49.1 109.3 109.3 109.3c60.3 0 109.3-49 109.3-109.3s-49-109.3-109.3-109.3zm0 209.2c-55 0-99.8-44.8-99.8-99.8 0-55.1 44.8-99.8 99.8-99.8s99.8 44.8 99.8 99.8-44.7 99.8-99.8 99.8zm0-190.2c-49.8 0-90.4 40.5-90.4 90.4s40.5 90.4 90.4 90.4 90.4-40.5 90.4-90.4-40.6-90.4-90.4-90.4zM119.3 600.3c-1.4 0-2.8-.2-4.1-.6-7.5-2.3-11.8-10.2-9.5-17.7l86.9-287.2c1.7-5.8 6.9-9.8 12.9-10.1 6.2 0 11.6 3.2 13.8 8.8l90.8 222 77.3-143.1c2.4-4.4 6.9-7.2 11.9-7.5 5-.2 9.8 2.2 12.5 6.4l84.9 129.9L597 234.1c2.8-7.4 11-11.1 18.3-8.3 7.4 2.8 11.1 11 8.3 18.3l-110 293.5c-1.9 5-6.4 8.6-11.8 9.1-5.3.5-10.5-1.9-13.5-6.4l-87.2-133.4L321 555.5c-2.6 4.8-7.9 7.7-13.3 7.4-5.5-.3-10.3-3.7-12.4-8.8l-87-212.7L133 590.2c-1.9 6.1-7.6 10.1-13.7 10.1z"/></svg>