<svg xmlns="http://www.w3.org/2000/svg" width="1000" height="1000" viewBox="0 0 1000 1000"><path fill="#0AAAFF" d="M500 510.2c-137.3 0-249-111.7-249-249.1S362.7 12 500 12s249.1 111.7 249.1 249.1S637.3 510.2 500 510.2zm0-444.5c-107.7 0-195.3 87.6-195.3 195.3 0 107.7 87.6 195.4 195.3 195.4 107.7 0 195.3-87.6 195.3-195.4 0-107.6-87.6-195.3-195.3-195.3zM912.2 979H87.8v-26.9c0-227.3 184.9-412.3 412.3-412.3 227.3 0 412.2 184.9 412.2 412.3V979zm-769.7-53.7h715C843.7 740.1 688.6 593.6 500 593.6S156.3 740.1 142.5 925.3z"/></svg>