<svg xmlns="http://www.w3.org/2000/svg" width="1000" height="1000" viewBox="0 0 1000 1000"><path fill="#0AAAFF" d="M378.2 990.7c-4.4 0-8.7-1-12.9-3l-161.1-77.6c-11.9-5.7-18.6-18.7-16.4-31.8l20.3-116.7c-9.4-10.5-18.2-21.5-26.2-32.8l-118.3-6.3c-13.2-.7-24.4-10.1-27.3-23L-3.5 525.3c-3-12.9 3-26.2 14.7-32.6L115 435.8c2.4-13.8 5.5-27.5 9.3-41l-68.8-96.4c-7.7-10.8-7.3-25.3.9-35.7l111.5-139.8c8.3-10.4 22.4-14 34.6-8.9l109.2 45.7c12.7-7 25.8-13.4 39.2-18.9l31.2-110.1c3.6-12.8 15.3-21.6 28.5-21.6h178.7c13.3 0 24.9 8.8 28.6 21.6l31.2 110c13.4 5.5 26.5 11.8 39.2 18.8L797.4 114c12.3-5 26.5-1.4 34.6 8.9l111.5 139.7c8.3 10.4 8.7 25 1 35.7l-68.9 96.4c3.8 13.4 6.9 27.1 9.3 41.1l103.9 56.8c11.6 6.3 17.6 19.7 14.7 32.6l-39.8 174.4c-3 12.9-14.1 22.3-27.3 23L818 728.9c-8.1 11.4-16.9 22.3-26.2 32.8L812 878.4c2.3 13.1-4.4 26.1-16.3 31.8l-161.1 77.5c-11.9 5.9-26.2 2.9-35-7L521 892.1c-13.9.9-28.2.8-41.9 0l-78.6 88.6c-5.9 6.6-14 10-22.3 10zm-128-124.2L371 924.7l73.5-82.8c6.2-7 15-10.6 24.7-9.8 20.4 1.8 41.6 1.8 61.9 0 9.2-.8 18.4 2.8 24.7 9.8l73.5 82.7L750 866.5l-18.9-109.1c-1.6-9.3 1.3-18.8 7.8-25.7 14.2-14.8 27.1-30.9 38.4-48 5.2-7.9 13.8-12.8 23.2-13.3l110.5-5.9 29.8-130.7-97.1-53.1c-8.3-4.5-13.9-12.7-15.1-22.1-2.8-20.6-7.4-40.8-13.7-60-3-9-1.4-18.8 4-26.5l64.4-90.1-83.5-104.7L697.7 220c-8.9 3.6-18.7 2.9-26.8-2-17.8-10.8-36.8-20-56.4-27.1-8.9-3.3-15.7-10.6-18.3-19.8L566.9 68.6H433l-29.1 102.7c-2.6 9.2-9.4 16.5-18.4 19.8-19.4 7.1-38.4 16.2-56.4 27.1-8.2 4.9-18.1 5.6-26.8 2l-102-42.7-83.5 104.8 64.3 90.1c5.5 7.7 7 17.5 4.1 26.5-6.3 19.3-10.9 39.4-13.6 59.9-1.2 9.4-6.9 17.6-15.1 22.1l-97 53.2 29.8 130.6 110.5 5.9c9.4.5 18 5.4 23.2 13.3 11.1 16.9 24.1 33.1 38.5 48.1 6.5 6.8 9.4 16.3 7.8 25.6l-19.1 108.9zM500 666.6c-90.7 0-164.5-73.8-164.5-164.5S409.3 337.6 500 337.6s164.5 73.8 164.5 164.5S590.7 666.6 500 666.6zm0-269.7c-58 0-105.2 47.2-105.2 105.2S442 607.3 500 607.3s105.2-47.2 105.2-105.2S558 396.9 500 396.9z"/></svg>