<svg xmlns="http://www.w3.org/2000/svg" width="738" height="1000" viewBox="0 0 738 1000"><path d="M225 948.1c-9.6 0-19.3-3.7-26.6-11L-.6 738.2c-.4-.4-.9-.9-1.3-1.4 0 0 0 .4-.1-.1-5.9-6.7-9.6-15.4-9.6-25v-.1-.1c0-9.6 3.7-18.3 9.7-24.9h.1c.4-.4.8-.8 1.2-1.3l199-199c14.7-14.7 38.5-14.7 53.2 0s14.7 38.5 0 53.2L116.9 673.9h596.3c20.8 0 37.6 16.9 37.6 37.6s-16.9 37.6-37.6 37.6H116.9l134.7 134.7c14.7 14.7 14.7 38.5 0 53.2-7.3 7.5-16.9 11.1-26.6 11.1zm289.2-422.9c-9.7 0-19.3-3.7-26.6-11-14.7-14.7-14.7-38.5 0-53.2l134.7-134.8H26c-20.8 0-37.6-16.9-37.6-37.6 0-20.8 16.9-37.6 37.6-37.6h596.3L487.6 116.2c-14.7-14.7-14.7-38.5 0-53.2s38.5-14.7 53.2 0l198.9 198.9c.1.1.1.2.2.3 0 0-.3 0 .1.1v.1h.1c3.4 3.5 5.9 7.5 7.7 11.8 1.7 4.2 2.7 8.7 2.8 13.4v1.7c-.1 4.7-1.1 9.1-2.7 13.2-1.8 4.5-4.6 8.7-8.2 12.4l-198.9 199c-7.3 7.6-16.9 11.3-26.6 11.3z"/></svg>