<svg xmlns="http://www.w3.org/2000/svg" width="1000" height="1000" viewBox="0 0 1000 1000"><path d="M459.2 874.1c-8.8 0-17.7-3.4-24.4-10.1L262.7 691.9c-13.5-13.5-13.5-35.3 0-48.8s35.3-13.5 48.8 0L425 756.6c.1-6.7.2-13.2.2-19.6 1.3-95.4 2-147.9-23.3-201.7C342.2 408.2 233.3 379 170 373.3H33.2c-19.1 0-34.5-15.5-34.5-34.5s15.5-34.5 34.5-34.5h82.5c6.4-.5 23.8-1.6 47.8 0h719.8L763.6 184.6c-13.5-13.5-13.5-35.3 0-48.8s35.3-13.5 48.8 0L991 314.4c13.5 13.5 13.5 35.3 0 48.8L812.4 541.8c-13.5 13.5-35.3 13.5-48.8 0s-13.5-35.3 0-48.8l119.6-119.6H358.4c40.1 29.9 77.8 72.4 106.1 132.7 32.1 68.2 31.2 133.3 29.9 231.9-.1 5.8-.2 11.8-.2 17.9l119.3-119.2c13.5-13.5 35.3-13.5 48.8 0s13.5 35.3 0 48.8L483.6 864c-6.7 6.7-15.6 10.1-24.4 10.1z"/></svg>