<svg xmlns="http://www.w3.org/2000/svg" width="1000" height="1000" viewBox="0 0 1000 1000"><path fill="#0AAAFF" d="M772.3 935.5H227.7c-14.2 0-25.7-11.5-25.7-25.7V307.5c0-14.2 11.5-25.7 25.7-25.7h86.4c14.2 0 25.7 11.5 25.7 25.7s-11.5 25.7-25.7 25.7h-60.7V884h493.3V333.2h-61.4c-14.2 0-25.7-11.5-25.7-25.7s11.5-25.7 25.7-25.7h87.1c14.2 0 25.7 11.5 25.7 25.7v602.3c0 14.2-11.5 25.7-25.8 25.7z"/><path fill="#0AAAFF" d="M500 588.6c-14.2 0-25.7-11.5-25.7-25.7V52.8L318.4 208.7c-10 10-26.3 10-36.4 0-10-10-10-26.3 0-36.4L481.8-27.5c2.4-2.4 5.2-4.3 8.2-5.5h.1c2.9-1.2 6-1.9 9.3-2h.1c.1.1.3 0 .4 0h.6c3.1.1 6.1.7 8.8 1.8 3.2 1.3 6.2 3.2 8.7 5.8l199.9 199.8c10 10 10 26.3 0 36.4-10 10-26.3 10-36.4 0l-156-155.9V563c.2 14.1-11.3 25.6-25.5 25.6z"/></svg>