<svg xmlns="http://www.w3.org/2000/svg" width="1000" height="1000" viewBox="0 0 1000 1000"><path fill="#0AAAFF" d="M764 914H236c-22.1 0-40-17.9-40-40V423.3c0-22.1 17.9-40 40-40h96.8c22.1 0 40 17.9 40 40s-17.9 40-40 40H276v370.6h448V463.3h-57.5c-22.1 0-40-17.9-40-40s17.9-40 40-40H764c22.1 0 40 17.9 40 40V874c0 22.1-17.9 40-40 40z"/><path fill="#0AAAFF" d="M500.1 652.9c-22.1 0-40-17.9-40-40V108.7L316.3 252.4c-15.6 15.6-40.9 15.6-56.6 0-15.6-15.6-15.6-41 0-56.6l212.1-212c7.5-7.6 17.7-11.7 28.3-11.7 10.6 0 20.8 4.2 28.4 11.7l212 212.1c15.6 15.6 15.6 41-.1 56.7-15.6 15.5-41 15.6-56.7-.1L540.1 108.8v504.1c0 22.1-17.9 40-40 40z"/></svg>