<svg xmlns="http://www.w3.org/2000/svg" width="478" height="1000" viewBox="0 0 478 1000"><path d="M425.3-1.2H53C24-1.2 0 22.4 0 51.3v545.4c0 29 24.4 52.3 53.3 52.3H115v36.4c-37 34.4-58 82.2-58 133.1 0 100.7 81.7 182.5 182.4 182.5 100.6 0 182.9-81.9 182.9-182.5 0-50.9-22.3-98.7-57.3-133.2V649h60.2c29 0 52.8-23.3 52.8-52.3V51.3c0-28.9-23.7-52.5-52.7-52.5zM59 592V377h56v215H59zm305.5 226.5c0 69.1-56.2 125.3-125.2 125.3-69.1 0-125.2-56.2-125.2-125.3 0-38.2 17.2-73.8 47.1-97.7l10.9-8.6V239.3c0-37.2 29.8-67.5 67-67.5s67 30.3 67 67.5v472.8l11.1 8.6c29.8 23.9 47.3 59.6 47.3 97.8zM421 592h-56V377h56v215zm0-272h-56v-80.7c0-68.8-56.2-124.8-125-124.8s-125 56-125 124.8V320H59V56.1l362 .1V320z"/><path d="M268 757.7V416.3c0-15.8-12.7-28.6-28.5-28.6S211 400.5 211 416.3v341.4c-24 10.8-38.5 33.9-38.5 60.5 0 36.9 29.9 67 66.9 67 36.9 0 67-30.1 67-67-.1-26.7-15.4-49.7-38.4-60.5z"/></svg>