<svg xmlns="http://www.w3.org/2000/svg" width="1000" height="1000" viewBox="0 0 1000 1000"><path d="M967 975.4H33C14.9 975.4.2 960.7.2 942.6V153.7c0-18.1 14.7-32.8 32.8-32.8h115.8c18.1 0 32.8 14.7 32.8 32.8s-14.7 32.8-32.8 32.8h-83v158.6h868.4V186.5h-70.7c-18.1 0-32.8-14.7-32.8-32.8s14.7-32.8 32.8-32.8H967c18.1 0 32.8 14.7 32.8 32.8v788.8c0 18.2-14.7 32.9-32.8 32.9zM65.8 909.7h868.4V410.8H65.8v498.9zm717.4-108h-88.6c-18.1 0-32.8-14.7-32.8-32.8 0-18.1 14.7-32.8 32.8-32.8h88.6c18.1 0 32.8 14.7 32.8 32.8 0 18.1-14.7 32.8-32.8 32.8zm-238.9 0h-88.6c-18.1 0-32.8-14.7-32.8-32.8 0-18.1 14.7-32.8 32.8-32.8h88.6c18.1 0 32.8 14.7 32.8 32.8 0 18.1-14.7 32.8-32.8 32.8zm-238.9 0h-88.6c-18.1 0-32.8-14.7-32.8-32.8 0-18.1 14.7-32.8 32.8-32.8h88.6c18.1 0 32.8 14.7 32.8 32.8.1 18.1-14.6 32.8-32.8 32.8zm477.8-124.2h-88.6c-18.1 0-32.8-14.7-32.8-32.8s14.7-32.8 32.8-32.8h88.6c18.1 0 32.8 14.7 32.8 32.8s-14.7 32.8-32.8 32.8zm-238.9 0h-88.6c-18.1 0-32.8-14.7-32.8-32.8s14.7-32.8 32.8-32.8h88.6c18.1 0 32.8 14.7 32.8 32.8s-14.7 32.8-32.8 32.8zm-238.9 0h-88.6c-18.1 0-32.8-14.7-32.8-32.8s14.7-32.8 32.8-32.8h88.6c18.1 0 32.8 14.7 32.8 32.8s-14.6 32.8-32.8 32.8zm477.8-124.1h-88.6c-18.1 0-32.8-14.7-32.8-32.8 0-18.1 14.7-32.8 32.8-32.8h88.6c18.1 0 32.8 14.7 32.8 32.8 0 18.1-14.7 32.8-32.8 32.8zm-238.9 0h-88.6c-18.1 0-32.8-14.7-32.8-32.8 0-18.1 14.7-32.8 32.8-32.8h88.6c18.1 0 32.8 14.7 32.8 32.8 0 18.1-14.7 32.8-32.8 32.8zm-238.9 0h-88.6c-18.1 0-32.8-14.7-32.8-32.8 0-18.1 14.7-32.8 32.8-32.8h88.6c18.1 0 32.8 14.7 32.8 32.8.1 18.1-14.6 32.8-32.8 32.8zm450.1-308.2c-18.1 0-32.8-14.7-32.8-32.8V57.5c0-18.1 14.7-32.8 32.8-32.8s32.8 14.7 32.8 32.8v154.9c0 18.1-14.7 32.8-32.8 32.8zm-510.9 0c-18.1 0-32.8-14.7-32.8-32.8V57.5c0-18.1 14.7-32.8 32.8-32.8s32.8 14.7 32.8 32.8v154.9c0 18.1-14.7 32.8-32.8 32.8zm404-58.7H351.4c-18.1 0-32.8-14.7-32.8-32.8s14.7-32.8 32.8-32.8h297.3c18.1 0 32.8 14.7 32.8 32.8s-14.7 32.8-32.9 32.8z"/></svg>