<svg xmlns="http://www.w3.org/2000/svg" width="926" height="1000" viewBox="0 0 926 1000"><path d="M511.1 999.7h-95.5c-17.6 0-31.8-14.2-31.8-31.8V762.4H128.6c-8.3 0-16.4-3.3-22.3-9.1L-9.4 639.6c-6.1-6-9.5-14.2-9.5-22.7s3.4-16.7 9.5-22.7l115.6-113.7c5.9-5.9 14-9.1 22.3-9.1h255.2V383H39.3c-12.9 0-24.5-7.8-29.4-19.8-4.9-11.9-2.1-25.6 7.1-34.7l92.6-91.1-92.6-91c-9.2-9-12-22.8-7.1-34.7C14.8 99.8 26.4 92 39.3 92h344.4V32.5c0-17.6 14.2-31.8 31.8-31.8H511c17.6 0 31.8 14.2 31.8 31.8V92h255.3c8.3 0 16.4 3.3 22.3 9.1l115.7 113.7c6.1 6 9.5 14.1 9.5 22.7s-3.4 16.7-9.5 22.7L820.5 373.9c-5.9 5.9-14 9.1-22.3 9.1H542.9v88.4h344.5c12.9 0 24.6 7.8 29.4 19.8 4.9 11.9 2.1 25.7-7.1 34.7l-92.6 91 92.6 91c9.2 9.1 12 22.8 7.1 34.7-4.9 12-16.5 19.8-29.4 19.8H542.9v205.4c0 17.7-14.3 31.9-31.8 31.9zm-63.8-63.6h31.9V762.5h-31.9v173.6zM141.6 698.9h668.2l-60.3-59.2c-6-6-9.5-14.2-9.5-22.7s3.4-16.7 9.5-22.7l60.3-59.2H141.6L58.3 617l83.3 81.9zm305.7-227.5h31.9V383h-31.9v88.4zm63.8-152h274.1l83.3-81.9-83.3-81.9H117l60.2 59.2c6.1 6 9.5 14.1 9.5 22.7s-3.4 16.7-9.5 22.7L117 319.4h394.1zM447.3 92h31.9V64.3h-31.9V92z"/></svg>