<svg xmlns="http://www.w3.org/2000/svg" width="1000" height="1000" viewBox="0 0 1000 1000"><path d="M730.4 846.7H268.9c-6.9 0-12.5-5.6-12.5-12.5v-99.4c0-6.9 5.6-12.5 12.5-12.5s12.5 5.6 12.5 12.5v86.9h436.4V178.4H281.5v87.9c0 6.9-5.6 12.5-12.5 12.5s-12.5-5.6-12.5-12.5V165.8c0-6.9 5.6-12.5 12.5-12.5h461.4c6.9 0 12.5 5.6 12.5 12.5v668.3c0 7-5.6 12.6-12.5 12.6z"/><path d="M412.5 675.5c-3.2 0-6.4-1.2-8.9-3.7-4.9-4.9-4.9-12.8 0-17.7l139.2-139.2H12.5c-6.9 0-12.5-5.6-12.5-12.5s5.6-12.5 12.5-12.5h530.3L403.6 350.6c-4.9-4.9-4.9-12.8 0-17.7 4.9-4.9 12.8-4.9 17.7 0L582 493.5l.2.2c2.1 2.2 3.4 5.2 3.4 8.5 0 3.4-1.4 6.6-3.7 8.8L421.4 671.8c-2.5 2.5-5.7 3.7-8.9 3.7z"/></svg>