<svg xmlns="http://www.w3.org/2000/svg" width="749.8" height="1000" viewBox="0 0 749.8 1000"><path d="M724.2 1001.5H25.4c-9.1 0-17.7-3.8-23.8-10.6s-9.1-15.7-8.1-24.8l66.7-665.4c1.6-16.4 15.5-28.9 32-28.9h102V168.1c0-81.7 47.7-169 181.5-169C508.3-.9 555.5 85.8 555.5 167v104.9h102c16.5 0 30.3 12.5 32 28.9l66.8 665.4c.9 9-2 18-8.1 24.8-6.3 6.7-14.9 10.5-24 10.5zM60.9 937.3h627.8l-60.3-601.1H121.1L60.9 937.3zm197.4-665.4h232.9v-105c0-47.3-20-103.6-115.6-103.6-97 0-117.3 57-117.3 104.8v103.8z"/></svg>