<svg xmlns="http://www.w3.org/2000/svg" width="891" height="1000" viewBox="0 0 891 1000"><path d="M292.9 1046.3c-9.7 0-19.4-3.7-26.7-11.1L-.6 768.5c-7.1-7.1-11.1-16.7-11.1-26.7s4-19.7 11.1-26.7l266.8-266.8c14.8-14.8 38.7-14.8 53.5 0s14.8 38.7 0 53.5L117.5 703.9h416.4c74.2 0 167-7.5 225.6-66.4 45.2-45.4 67.9-119.4 67.5-220-1.1-255.7-142.9-291-295.9-291h-505c-20.9 0-37.8-16.9-37.8-37.8S5.2 50.9 26.1 50.9H531c158.8 0 370.2 38 371.6 366.3.5 121.4-29.6 213.5-89.6 273.7-78.2 78.6-190.3 88.7-279.2 88.7H117.5l202.2 202.2c14.8 14.8 14.8 38.7 0 53.5a38.1 38.1 0 0 1-26.8 11z"/></svg>