<svg xmlns="http://www.w3.org/2000/svg" width="1000" height="1000" viewBox="0 0 1000 1000"><path d="M542.7 959C290.6 959 85.5 753.9 85.5 501.7c0-19.6 16-35.6 35.6-35.6s35.6 16 35.6 35.6c0 212.9 173.2 386.1 386.1 386.1 212.9 0 386.1-173.2 386.1-386.1 0-212.9-173.2-386.1-386.1-386.1-145 0-276.5 80.1-343.2 209-6.1 11.9-18.2 19.2-31.6 19.2-5.6 0-11.3-1.4-16.4-4-8.4-4.4-14.7-11.7-17.5-20.8-2.9-9.1-2.1-18.7 2.3-27.1C215.3 139.3 371 44.5 542.7 44.5c252.1 0 457.3 205.1 457.3 457.3C1000 753.9 794.8 959 542.7 959z"/><path d="M38.5 580.8c-9.5 0-18.4-3.7-25.1-10.4-13.9-13.9-13.9-36.4 0-50.3l86.5-86.5c6.7-6.7 15.6-10.4 25.1-10.4 9.5 0 18.4 3.7 25.1 10.4l86.5 86.5c13.9 13.9 13.9 36.4 0 50.3-6.7 6.7-15.6 10.4-25.1 10.4-9.5 0-18.4-3.7-25.1-10.4L125 509l-61.4 61.4c-6.6 6.7-15.6 10.4-25.1 10.4zM548.5 539c-4.7 0-9.5-.3-13.8-2-15.6-4.1-26.6-17.5-26.6-33.7V228c0-19.6 15.9-35.6 35.5-35.6s35.5 16 35.5 35.6v241h132.2c19.6 0 35.6 15.4 35.6 35s-16 35-35.6 35H548.5z"/></svg>