<svg xmlns="http://www.w3.org/2000/svg" width="1000" height="1000" viewBox="-557 -399 1000 1000"><path d="M-56.9 576c-261.8 0-475-213.2-475-475s213.2-475 475-475 475 213.2 475 475-213.2 475-475 475zm-23.2-903.7C-304.8-316.1-485.6-128.4-485.6 101c0 236.3 192.3 428.7 428.7 428.7 60.2 0 118.2-11.6 169.1-34.8L19.6 314.2c-23.2 9.3-51 13.9-78.8 13.9-125.1 0-224.8-102-224.8-224.8 0-115.9 88-213.2 201.6-224.8v-206.2h2.3zM63.6 291l92.7 180.7c27.8-16.2 53.3-34.8 76.5-55.6l-146-141.3c-7 6.9-16.3 11.6-23.2 16.2zm55.6-48.7l146 141.3c62.6-69.5 102-162.2 108.9-261.8H170.2c-7 46.4-23.2 88.1-51 120.5zm-176.1-322c-99.6 0-178.4 81.1-178.4 178.4 0 99.6 81.1 178.4 178.4 178.4S121.5 196 121.5 98.7C123.8 1.4 42.7-79.7-56.9-79.7zM167.9 77.8h203.9C360.2-140 184.1-316.1-33.7-327.7v203.9c106.6 11.6 192.3 95 201.6 201.6z"/></svg>