<svg id="Capa_1" xmlns="http://www.w3.org/2000/svg" width="1000" height="1000" viewBox="-776.5 -103.5 1000 1000"><style>.st0{fill:#050505}</style><path class="st0" d="M208.3 785.6L-262-22.2c-3.4-5.9-9.7-9.4-16.5-9.4-6.7 0-13 3.6-16.3 9.4l-470.5 807.8c-3.5 5.9-3.6 13.2-.2 19.1 3.5 5.9 9.7 9.5 16.5 9.5h940.9c6.8 0 13.2-3.7 16.5-9.5 1.6-3 2.5-6.3 2.5-9.5 0-3.3-.9-6.6-2.6-9.6zm-422.6-530.5l-15.6 321.1h-80.8l-15.6-321.1h112zm-56.1 485.5h-1.4c-36.8 0-62.3-27.6-62.3-64.5 0-38.3 26.2-64.5 63.8-64.5s62.4 26.2 63.2 64.5c-.1 36.9-24.9 64.5-63.3 64.5z"/></svg>