<svg xmlns="http://www.w3.org/2000/svg" width="1000" height="1000" viewBox="0 0 1000 1000"><path d="M902.2 960.9H97.8c-10.2 0-19.6-5.3-24.8-14-5.3-8.7-5.6-19.5-.9-28.5L214 645.3c5-9.6 14.9-15.7 25.8-15.7h120.9C273.2 484 229 375.3 229 306c0-149.4 121.6-271 271-271s271 121.6 271 271c0 68-44.5 176.7-132.3 323.6h121.4c10.8 0 20.8 6 25.8 15.6l142 273.1c4.7 9 4.3 19.8-.9 28.5-5.2 8.8-14.6 14.1-24.8 14.1zm-756.6-58.1h708.7l-111.8-215H603c-42.4 67.1-76.6 115.2-79.3 118.9-.1.1-.1.1-.1.2l-.9 1.2s-.1.1 0 .1c0 0-.1.1 0 .1v.2c-.9 1.1-1.9 2.2-3 3.1 0 0-.1.1-.1 0-5.2 4.6-12 7.2-19 7.2h-.1c-9.3 0-18.1-4.5-23.6-12.1-.3-.4-1.7-2.3-4-5.7-10.6-14.9-40.4-57.5-76-113.6H257.3L145.6 902.8zM437 643.3c24.6 39.2 47 72.7 62.9 95.8 15.8-23.3 38.2-57 62.4-95.8C659.4 487.6 712.9 367.8 712.9 306c0-117.4-95.5-212.9-212.9-212.9S287.1 188.6 287.1 306c0 63.2 53.2 183 149.9 337.3zM500 445c-73.9 0-134-60.1-134-133.9s60.1-134 134-134S633.9 237.2 633.9 311s-60 134-133.9 134zm0-209.8c-41.8 0-75.8 34-75.8 75.8s34 75.8 75.8 75.8 75.8-34 75.8-75.8-34-75.8-75.8-75.8z"/></svg>