<svg xmlns="http://www.w3.org/2000/svg" width="1000" height="1000" viewBox="-557 -399 1000 1000"><path d="M394.7 580.8h-903.4c-14 0-23.3-9.3-23.3-23.3v-682.2c0-9.3 4.7-16.3 14-21l470.3-230.5c7-4.7 16.3-2.3 23.3 0 7 4.7 11.6 11.6 11.6 18.6v170L404-24.6c9.3 4.7 14 11.6 14 21v558.8c0 16.3-11.6 25.6-23.3 25.6zM255 534.3h116.4V15L255-31.5v565.8zm-270.1 0h221.2V-45.5v-4.7l-223.5-86.2v670.6h2.3zm-307.3 0h260.8v-852.2l-260.8 128.1v724.1zm-163 0H-369v-703.2l-116.4 58.2v645zm626.3-118.8H64.1c-14 0-23.3-9.3-23.3-23.3s9.3-23.3 23.3-23.3h76.8c14 0 23.3 9.3 23.3 23.3s-11.6 23.3-23.3 23.3zm-274.7 0h-121.1c-14 0-23.3-9.3-23.3-23.3s9.3-23.3 23.3-23.3h121.1c14 0 23.3 9.3 23.3 23.3s-9.4 23.3-23.3 23.3zm274.7-163H64.1c-14 0-23.3-9.3-23.3-23.3S50.1 206 64.1 206h76.8c14 0 23.3 9.3 23.3 23.3s-11.6 23.2-23.3 23.2zm-274.7 0h-121.1c-14 0-23.3-9.3-23.3-23.3s9.3-23.3 23.3-23.3h121.1c14 0 23.3 9.3 23.3 23.3s-9.4 23.3-23.3 23.3zm274.7-163H64.1c-14 0-23.3-9.3-23.3-23.3S50.1 43 64.1 43h76.8c14 0 23.3 9.3 23.3 23.3s-11.6 23.2-23.3 23.2zm-274.7 0h-121.1c-14 0-23.3-9.3-23.3-23.3s9.3-23.3 23.3-23.3h121.1c14 0 23.3 9.3 23.3 23.3s-9.4 23.3-23.3 23.3zm0-160.6h-121.1c-14 0-23.3-9.3-23.3-23.3s9.3-23.3 23.3-23.3h121.1c14 0 23.3 9.3 23.3 23.3s-9.4 23.3-23.3 23.3z"/></svg>