<svg xmlns="http://www.w3.org/2000/svg" viewBox="0 0 1000 1000"><path d="M623.6 538.9c-.4 2-.6 4.1-.6 6.1.3 101.9 83.3 184.7 185.3 184.7 101.9 0 184.9-82.8 185.3-184.7.1-2-.1-4.1-.6-6.1-.4-2-1.1-3.9-1.9-5.7L832.8 172.8c-.9-2.2-2.1-4.3-3.5-6.1-1.1-1.4-2.1-2.7-3.4-3.8h.1c-5-4-10.9-5.8-17.4-5.8h-.1-.1-230.7c-11.1-33-41.7-55.6-77.6-55.6-36 0-66.6 22.6-77.7 55.6H191.7h-.1-.1-.2c-6.5 0-12.4 2.2-17 6.1v-.1c-1.3 1.1-2.6 2.4-3.6 3.8-1.4 1.8-2.6 3.9-3.5 6.1L8.9 533.2C8.1 535 7.4 537 7 539c-.4 2-.6 4-.6 6 .3 101.9 83.3 184.7 185.3 184.7S376.7 646.9 377 545c.1-2-.1-4-.6-6-.4-2-1.1-3.7-1.9-5.5L232.4 210h190c8.2 24 26.7 42.4 51.7 50.6V846H210.2c-14.7 0-26.5 11.8-26.5 26.5s11.9 26.5 26.5 26.5h579.5c14.7 0 26.5-11.8 26.5-26.5S804.4 846 789.7 846H526V260.6c25-8.2 43.5-26.6 51.7-50.6h190L625.5 533.5c-.9 1.8-1.5 3.4-1.9 5.4zM191.7 676.7C127.9 676.7 74.5 631 62.2 571h259c-12.3 60-65.7 105.7-129.5 105.7zM309.8 518H73.6l118.1-268.9L309.8 518zM500 211.9c-16 0-29-13-29-29s13-29 29-29 29 13 29 29-13 29-29 29zm308.3 37.2L926.4 518H690.2l118.1-268.9zM937.8 571c-12.3 60-65.7 105.7-129.5 105.7S691.1 631 678.8 571h259z"/></svg>