<svg xmlns="http://www.w3.org/2000/svg" width="1000" height="1000" viewBox="-553 -399 1000 1000"><path d="M-133.7 430.9c-61.4 0-116.4-42.3-131.2-99.5h-205.3c-8.5 0-16.9-6.4-21.2-14.8l-36-131.2c-2.1-8.5 2.1-19.1 8.5-23.3L94.9-225.3c6.4-4.2 12.7-4.2 19.1-2.1 6.4 2.1 10.6 8.5 12.7 14.8L274.8 306c2.1 6.4 0 12.7-4.2 19.1-4.2 4.2-10.6 8.5-16.9 8.5H-4.6c-12.7 54.9-65.6 97.3-129.1 97.3zm-86.8-99.5c14.8 33.9 48.7 57.2 86.8 57.2 38.1 0 72-23.3 86.8-57.2h-173.6zm404.3-42.3h44.5L94.9-174.5l-38.1 23.3 127 440.3zm-552.5-2.2l508 2.1L20.8-128l-429.7 271 40.2 143.9zm-84.6 0h44.5l-33.9-122.8-36 23.3 25.4 99.5zM391.3 191.7h-4.2l-86.8-21.2c-10.6-2.1-19.1-14.8-14.8-25.4 2.1-10.6 14.8-19.1 25.4-14.8l86.8 21.2c10.6 2.1 19.1 14.8 14.8 25.4-4.3 8.4-12.8 14.8-21.2 14.8zM304.5 37.1c-8.5 0-16.9-6.4-21.2-14.8-4.2-10.6 4.2-23.3 14.8-25.4l97.4-27.5c10.6-2.1 23.3 4.2 25.4 14.8 4.2 10.6-4.2 23.3-14.8 25.4l-95.3 27.5h-6.3zm-69.9-110c-4.2 0-10.6-2.1-14.8-6.4-8.5-8.5-8.5-21.2 0-29.6l59.3-65.6c8.5-8.5 21.2-8.5 29.6 0 8.5 8.5 8.5 21.2 0 29.6l-61.4 65.6c-2.1 4.3-8.4 6.4-12.7 6.4z"/></svg>