<svg xmlns="http://www.w3.org/2000/svg" width="1000" height="1000" viewBox="0 0 1000 1000"><path d="M946.1 977.8H53.9c-14 0-25.4-11.4-25.4-25.4V754.7c0-14 11.3-25.4 25.4-25.4h892.3c14 0 25.4 11.4 25.4 25.4v197.8c-.1 14-11.5 25.3-25.5 25.3zM79.2 927.1h841.5v-147H79.2v147zM819.3 507.6H180.7c-14 0-25.4-11.4-25.4-25.4V260.9c0-14 11.3-25.4 25.4-25.4h638.7c14 0 25.4 11.4 25.4 25.4v221.3c-.1 14.1-11.4 25.4-25.5 25.4zM206 456.9h588V286.3H206v170.6zM889.3 188.8H563.2c-14 0-25.4-11.4-25.4-25.4v-116c0-14 11.3-25.4 25.4-25.4h326.1c14 0 25.4 11.4 25.4 25.4v116c0 14.1-11.4 25.4-25.4 25.4zm-300.7-50.7H864V72.9H588.6v65.2z"/><path d="M946.1 780.1H53.9c-8.7 0-16.7-4.4-21.4-11.7s-5.3-16.5-1.6-24.3l126.8-272.4c4.2-8.9 13.1-14.7 23-14.7h638.7c9.9 0 18.8 5.7 23 14.7L969.1 744c3.7 7.8 3 17-1.6 24.3-4.7 7.3-12.7 11.8-21.4 11.8zM93.6 729.3h812.7L803.2 507.6H196.8L93.6 729.3zM563.2 879H436.8c-14 0-25.4-11.4-25.4-25.4s11.3-25.4 25.4-25.4h126.4c14 0 25.4 11.4 25.4 25.4S577.2 879 563.2 879z"/><path d="M266.8 600.9c-6.9 0-13.2-2.8-18-7.3-4.8-4.8-7.4-11.2-7.4-18 0-6.6 2.8-13.2 7.4-18 9.4-9.1 26.4-9.4 36 0 4.6 4.8 7.4 11.4 7.4 18s-2.8 13.2-7.4 18c-4.8 4.8-11.4 7.3-18 7.3zM243.5 684.6c-6.9 0-13.2-2.5-18-7.4-4.6-4.6-7.4-11.2-7.4-17.8 0-6.8 2.8-13.4 7.4-18 9.4-9.4 26.4-9.6 36 0 4.6 4.6 7.4 11.2 7.4 18 0 6.6-2.8 13.2-7.4 17.8-4.8 4.9-11.4 7.4-18 7.4zM499.9 600.9c-6.6 0-12.9-2.5-17.7-7.3-4.8-4.8-7.6-11.4-7.6-18s2.8-13.2 7.6-18c9.4-9.4 26.4-9.4 35.7 0 4.8 4.8 7.6 11.4 7.6 18s-2.8 13.2-7.6 18c-4.8 4.8-11.2 7.3-18 7.3zM499.9 684.9c-6.6 0-13.2-2.8-17.7-7.6-4.8-4.6-7.6-11.2-7.6-17.8 0-6.8 2.8-13.4 7.6-18 9.4-9.4 26.4-9.4 35.7 0 4.8 4.6 7.6 11.2 7.6 18 0 6.6-2.8 13.2-7.6 17.8-4.6 4.8-11.2 7.6-18 7.6zM616.3 600.9c-6.6 0-13.2-2.8-17.8-7.3-4.8-4.8-7.6-11.2-7.6-18 0-6.8 2.8-13.2 7.6-18 9.1-9.4 26.4-9.4 35.8 0 4.8 4.8 7.4 11.4 7.4 18s-2.6 13.2-7.4 18c-4.9 4.6-11.2 7.3-18 7.3zM628.4 684.9c-6.6 0-13.2-2.8-18-7.6-4.6-4.6-7.4-11.2-7.4-17.8 0-6.8 2.8-13.4 7.6-18 9.1-9.4 26.1-9.4 35.8 0 4.6 4.6 7.4 11.2 7.4 18 0 6.6-2.8 13.2-7.4 17.8-4.8 4.8-11.4 7.6-18 7.6zM383.5 600.9c-6.6 0-13.2-2.8-17.8-7.3-4.8-4.6-7.4-11.2-7.4-18 0-6.6 2.6-13.2 7.4-18 9.4-9.4 26.4-9.4 35.8 0 4.8 4.8 7.6 11.4 7.6 18s-2.8 13.2-7.6 18c-4.6 4.6-11.2 7.3-18 7.3zM371.6 684.6c-6.6 0-13.2-2.5-18-7.4-4.8-4.6-7.4-11.2-7.4-17.8 0-6.8 2.5-13.4 7.4-18 9.4-9.4 26.6-9.4 36 0 4.6 4.8 7.4 11.2 7.4 18 0 6.6-2.8 12.9-7.4 17.8-4.9 4.9-11.5 7.4-18 7.4zM733.1 600.9c-6.6 0-13.2-2.5-18-7.3-4.6-4.8-7.4-11.4-7.4-18s2.8-13.2 7.4-18c9.6-9.4 26.6-9.4 36 .3 4.6 4.6 7.4 11.2 7.4 17.7 0 6.6-2.8 13.2-7.4 18-4.8 4.6-11.4 7.3-18 7.3zM756.5 684.6c-6.6 0-13.2-2.5-18-7.4-4.6-4.6-7.4-11.2-7.4-17.8 0-6.8 2.8-13.4 7.4-18 9.4-9.4 26.4-9.4 36 0 4.6 4.6 7.4 11.2 7.4 18 0 6.6-2.5 12.9-7.4 17.8-4.8 4.9-11.4 7.4-18 7.4zM726.3 284.2c-14 0-25.4-11.4-25.4-25.4v-95.4c0-14 11.3-25.4 25.4-25.4s25.4 11.4 25.4 25.4v95.4c-.1 14-11.4 25.4-25.4 25.4zM700.9 394.7H500c-14 0-25.4-11.4-25.4-25.4S486 344 500 344h200.9c14 0 25.4 11.4 25.4 25.4s-11.4 25.3-25.4 25.3z"/></svg>