<svg xmlns="http://www.w3.org/2000/svg" width="1000" height="1000" viewBox="-575 -399 1000 1000"><path d="M257.7 154.3c-80.6 0-142.3-61.8-142.3-142.7S177-131 257.7-131 400-69.2 400 11.6s-61.7 142.7-142.3 142.7zm0-214c-38 0-71.2 33.3-71.2 71.3S219.7 83 257.7 83s71.2-33.3 71.2-71.3-33.3-71.4-71.2-71.4z"/><path d="M262.4-74c-14.2 0-28.5-9.5-33.2-28.5-38-142.7-151.8-161.7-265.7-161.7h-474.4c-23.7 0-38-14.3-38-33.3 0-19 14.2-38 38-38h474.4c118.6 0 284.6 23.8 332.1 214 4.7 19-4.7 38-23.7 42.8-4.7 4.7-9.5 4.7-9.5 4.7zM-330.6 539.5c-9.5 0-19-4.8-23.7-9.5l-185-185.5c-14.2-14.3-14.2-38 0-52.3l185-185.5c14.2-14.3 38-14.3 52.2 0 14.2 14.3 14.2 38 0 52.3l-156.6 157 156.6 156.9c14.2 14.3 14.2 38 0 52.3-9.5 9.5-19 14.3-28.5 14.3z"/><path d="M-27 354h-427c-19 0-38-14.3-38-38s14.2-38 38-38h427c132.8 0 227.7-28.5 256.2-161.7 4.7-19 23.7-33.3 42.7-28.5 19 4.8 33.2 23.8 28.5 42.8C252.9 330.3 101.1 354-27 354z"/></svg>