<svg xmlns="http://www.w3.org/2000/svg" width="1000" height="1000" viewBox="-575 -399 1000 1000"><path d="M-76.9 71.4c-82.8 0-153.7-67-153.7-153.7 0-82.8 67-153.7 153.7-153.7C5.9-236 76.8-169 76.8-82.3S9.8 71.4-76.9 71.4zm0-244.4c-51.2 0-94.6 43.4-94.6 94.6s43.4 94.6 94.6 94.6 94.6-43.4 94.6-94.6S-25.7-173-76.9-173z"/><path d="M139.9 438h-433.6c-15.8 0-31.5-11.8-31.5-31.5 0-114.3 0-378.4 244.4-378.4S163.5 304 163.5 406.4c7.9 15.8-7.8 31.6-23.6 31.6zm-402.1-59.1h374.5C108.3 225.1 80.8 87.2-73 87.2s-189.2 137.9-189.2 291.7zM210.8 91.1c-59.1 0-110.4-47.3-110.4-110.4s51.2-110.4 110.4-110.4S321.2-82.3 321.2-19.3 270 91.1 210.8 91.1zm0-161.6c-27.6 0-51.2 23.7-51.2 51.2S183.2 32 210.8 32 262 8.3 262-19.2s-23.6-51.3-51.2-51.3z"/><path d="M364.6 339.4H147.8c-15.8 0-31.5-11.8-31.5-31.5s11.8-31.5 31.5-31.5H333c-7.9-145.9-74.9-161.6-122.2-161.6-55.2 0-78.8 23.7-90.7 39.4-7.9 11.8-27.6 15.8-39.4 7.9-11.8-7.9-15.8-27.6-7.9-39.4 15.8-23.7 55.2-67 141.9-67C297.6 55.6 400 99 400 307.9c-7.8 19.7-19.7 31.5-35.4 31.5z"/><g><path d="M-364.7 91.1c-59.1 0-110.4-47.3-110.4-110.4s51.2-110.4 110.4-110.4 110.4 47.3 110.4 110.4-47.3 110.4-110.4 110.4zm0-161.6c-27.6 0-51.2 23.7-51.2 51.2S-392.3 32-364.7 32s51.2-23.7 51.2-51.2-19.6-51.3-51.2-51.3z"/><path d="M-301.6 339.4h-216.8c-15.8 0-31.5-11.8-31.5-31.5 0-208.9 98.5-252.3 185.3-252.3s126.1 43.4 141.9 67c7.9 11.8 3.9 31.5-7.9 39.4-11.8 7.9-31.5 3.9-39.4-7.9-11.8-19.7-35.5-39.4-90.7-39.4-51.2 0-114.3 15.8-122.2 161.6h185.3c15.8 0 31.5 11.8 31.5 31.5 0 19.8-19.7 31.6-35.5 31.6z"/></g></svg>