<svg xmlns="http://www.w3.org/2000/svg" width="1000" height="1000" viewBox="-575 -399 1000 1000"><path d="M-30.5 576h-93c-16.2 0-32.3-12.1-32.3-32.3V345.5h-242.6c-8.1 0-16.2-4-20.2-8.1l-109.1-109.1c-4-4-8.1-12.1-8.1-20.2s4-16.2 8.1-20.2l109.1-109.1c4-4 12.1-8.1 20.2-8.1h242.6V-6.2h-323.4c-12.1 0-24.3-8.1-28.3-20.2-4-8.1 0-24.3 8.1-32.3l88.9-84.9-88.9-88.9c-8.1-8.1-12.1-20.2-8.1-32.3 4-12.1 16.2-20.2 28.3-20.2h327.4v-56.6c0-16.2 12.1-32.3 32.3-32.3h93c16.2 0 32.3 12.1 32.3 32.3v56.6h242.6c8.1 0 16.2 4 20.2 8.1l109.1 109.1c4 4 8.1 12.1 8.1 20.2s-4 16.2-8.1 20.2L268.6-18.3c-4 4-12.1 8.1-20.2 8.1H5.9v76.8h323.4c12.1 0 24.3 8.1 28.3 20.2s0 24.3-8.1 32.3l-89 84.9 88.9 84.9c8.1 8.1 12.1 20.2 8.1 32.3-4 12.1-16.2 20.2-28.3 20.2H1.8v206.2c0 16.2-16.2 28.4-32.3 28.4zm-60.7-60.7h32.3V349.6h-32.3v165.7zm64.7-226.4h283l-56.6-56.6c-4-4-8.1-12.1-8.1-20.2s4-16.2 8.1-20.2l56.6-56.6h-638.7l-80.9 76.8 80.9 76.8h355.7c-4 0 0 0 0 0zM-91.2 70.6h32.3V-6.2h-32.3v76.8zM-406.5-66.8h638.7l80.9-76.8-80.9-76.8h-638.7l56.6 56.6c4 4 8.1 12.1 8.1 20.2s0 16.2-4 20.2l-60.7 56.6zm315.3-218.3h32.3v-24.3h-32.3v24.3z"/></svg>