<svg xmlns="http://www.w3.org/2000/svg" width="1000" height="1000" viewBox="-575 -399 1000 1000"><path d="M-519.6 351c-21.2 0-33.9-15.8-29.6-31.7 8.5-118.8 72-340.6 275.1-340.6 135.4 0 211.6 103 245.5 205.9 38.1-95 110.1-205.9 254-205.9h67.7l-80.4-75.2c-12.7-11.9-12.7-31.7 0-43.6s33.9-11.9 46.6 0L390.5-13.4c12.7 11.9 12.7 31.7 0 43.6L255 156.9c-12.7 11.9-33.9 11.9-46.6 0-12.7-11.9-12.7-31.7 0-43.6l80.4-75.2h-67.7C34.9 38.1-3.2 319.3-7.4 323.3c0 15.8-16.9 27.7-33.9 27.7-16.9 0-29.6-11.9-29.6-27.7 0-4-21.2-285.1-211.6-285.1s-211.6 281.2-211.6 285.1c4.2 15.8-8.5 27.7-25.5 27.7z"/></svg>