<svg xmlns="http://www.w3.org/2000/svg" width="1000" height="1000" viewBox="-575 -399 1000 1000"><path d="M368.7 571.8H127.9c-17.8 0-35.7-12.7-35.7-33.8V60.9c0-42.2-13.4-143.6-133.8-143.6H-104c-58 0-133.8 25.3-133.8 143.6v481.3c0 16.9-13.4 33.8-35.7 33.8h-240.8c-17.8 0-35.7-12.7-35.7-33.8V60.9C-550-259.9-286.9-374-108.5-374h62.4c325.6 0 446 261.8 446 434.9v481.3c.1 17-13.3 29.6-31.2 29.6zm-209.6-59.1H333v-97.1H159.1v97.1zm-637.8 0h173.9v-97.1h-173.9v97.1zm637.8-160.4H333V60.9c0-147.8-102.6-371.6-379.1-371.6h-62.4c-151.6 0-374.6 97.1-374.6 371.6v291.3h173.9V60.9c0-190 151.6-206.9 196.2-206.9h62.4C96.6-146 150.1-40.4 150.1 60.9v291.3h9z"/></svg>