<svg xmlns="http://www.w3.org/2000/svg" width="1000" height="1000" viewBox="-575 -399 1000 1000"><path d="M225.7 575.9c-8.7 0-17.3-5.5-21.7-11-13-16.5-13-43.9 0-60.3l82.3-104.2h-104C30.7 400.5-56 252.4-134 115.3-203.3.2-268.3-115-372.3-115h-143c-21.7 0-34.7-16.5-34.7-43.9s13-43.9 34.7-43.9h143c138.7 0 216.6 137.1 294.6 268.7C-4 192.1 65.3 318.2 186.7 318.2h99.7L204 214c-13-16.5-13-43.9 0-60.3s34.7-16.5 47.7 0l138.7 175.5c4.3 5.5 8.7 16.5 8.7 27.4s-4.3 21.9-8.7 27.4L251.7 559.5c-8.7 16.4-17.4 16.4-26 16.4z"/><path d="M-372.3 406h-143c-17.3 0-34.7-16.5-34.7-43.9s13-38.4 34.7-38.4h143c104 0 169-115.2 242.6-235.8C-51.6-43.7 35-197.2 186.7-197.2h99.7L204-301.4c-13-16.5-13-43.9 0-60.3 13-16.5 34.7-16.5 47.7 0l138.7 175.5c13 16.5 13 43.9 0 60.3l-143 175.5c-13 16.5-34.7 16.5-47.7 0s-13-43.9 0-60.3L282-115h-99.7C61-115-8.3 5.7-82 137.3S-233.6 406-372.3 406z"/></svg>