<svg xmlns="http://www.w3.org/2000/svg" width="1000" height="1000" viewBox="0 0 1000 1000"><path d="M77 722.9c-6.7 0-13.4-2.6-18.5-7.7-10.2-10.2-10.2-26.8 0-37l233.7-233.8c9.8-9.8 27.2-9.8 37 0l164 164 351.5-351.7c10.2-10.2 26.8-10.2 37 0s10.2 26.8 0 37L511.7 664c-9.8 9.8-27.2 9.8-37 0l-164-164L95.4 715.3c-5.1 5.1-11.7 7.6-18.4 7.6z"/><path d="M864.2 429.5c-14.3 0-26-11.6-26.1-25.9l-.9-102.2-114.4-.9c-14.4-.1-26.1-11.9-25.9-26.4.1-14.4 11.8-25.9 26.1-25.9h.2l140.1 1.1c14.3.1 25.8 11.7 25.9 25.9l1.1 127.9c.1 14.4-11.5 26.2-25.9 26.4h-.2zM923 949.2H77c-14.4 0-26.1-11.7-26.1-26.1V77c0-14.4 11.7-26.1 26.1-26.1s26.1 11.7 26.1 26.1v819.9H923c14.4 0 26.1 11.7 26.1 26.1.1 14.5-11.6 26.2-26.1 26.2z"/></svg>