<svg xmlns="http://www.w3.org/2000/svg" width="1000" height="1000" viewBox="-575 -399 1000 1000"><path d="M-75 571.8c-262.5 0-475-212.5-475-470.8s212.5-470.8 475-470.8S400-157.3 400 101 187.5 571.8-75 571.8zm0-879.1c-229.2 0-416.7 183.3-416.7 408.3S-304.2 509.3-75 509.3 341.7 326 341.7 101 154.2-307.3-75-307.3zm-175 679.1c-8.3 0-12.5 0-16.7-4.2-12.5-8.3-16.7-29.2-8.3-41.7l170.8-233.3v-283.3c0-16.7 12.5-33.3 29.2-33.3s29.2 12.5 29.2 33.3V96.9c0 8.3 0 16.7-4.2 20.8l-175 241.7c-8.3 8.3-16.7 12.4-25 12.4zm-79.2-91.6c-8.3 0-20.8-4.2-25-16.7-29.2-50-45.8-104.2-45.8-162.5 0-133.3 83.3-254.2 212.5-304.2 16.7-4.2 33.3 4.2 37.5 20.8 4.2 16.7-4.2 33.3-16.7 41.7C-270.8-103.2-337.5-7.3-337.5 101c0 45.8 12.5 91.7 37.5 129.2 8.3 16.7 4.2 33.3-8.3 41.7-12.5 4.1-16.7 8.3-20.9 8.3zM-250 201c-12.5 0-25-8.3-29.2-20.8-12.5-25-16.7-54.2-16.7-83.3 0-75 41.7-145.8 108.3-187.5 16.7-8.3 33.3-4.2 41.7 12.5 8.3 16.7 4.2 33.3-12.5 41.7-45.8 33.3-75 83.3-75 137.5 0 20.8 4.2 37.5 12.5 58.3 8.3 16.7 0 33.3-16.7 41.7-4.1-.1-8.2-.1-12.4-.1z"/></svg>