<svg xmlns="http://www.w3.org/2000/svg" width="1000" height="1000" viewBox="400 -400 1000 1000"><path d="M1144 393.3H948.8c-14.4 0-26-11.6-26-26s11.6-26 26-26h180.5v-646.6H656c-14.4 0-26-11.6-26-26s11.6-26 26-26h488c20.6 0 37.3 16.7 37.3 37.3v676c0 20.6-16.7 37.3-37.3 37.3z"/><path d="M939.5 557.2c-6.2 0-12.6-1.7-18.6-5.2 0 0-.1 0-.1-.1L643 391.5c-14.3-8.3-24.3-24.9-24.3-40.4v-675.8c0-12.1 5.9-22.7 15.8-28.4 10.3-5.9 23.2-5.5 34.6 1.1l277.7 160.5c14.3 8.2 24.3 24.8 24.3 40.3v675.9c0 12-5.9 22.6-15.7 28.3-4.8 2.8-10.3 4.2-15.9 4.2zM670.7 347.5L919.1 491v-638.4L670.7-291v638.5z"/><path d="M870.3 203.3c-14.4 0-26-11.6-26-26v-66.5c0-14.4 11.6-26 26-26s26 11.6 26 26v66.5c0 14.4-11.6 26-26 26z"/></svg>