<svg xmlns="http://www.w3.org/2000/svg" width="1000" height="1000" viewBox="400 -400 1000 1000"><path d="M1349.1 504H773.3c-14.4 0-26-11.6-26-26 0-19 .4-37.3 1.3-55H450.9c-14.4 0-26-11.6-26-26 0-88.4 12-157.1 36.6-210.1 17.9-38.5 42.7-68.8 73.6-89.9 14.3-9.8 30-17.6 47-23.5-39-26.6-64.7-71.1-64.7-121.4 0-81.2 66.7-147.2 148.7-147.2 82 0 148.7 66 148.7 147.2 0 50-25.3 94.2-63.9 120.8 11.7 3.8 22.7 8.5 33.1 14 21.5 11.4 39.8 26.3 54.6 44.2 15.6-18.7 33.1-34.7 52.5-48 22.4-15.3 47.3-26.9 74.6-34.8-14.2-8.1-27.3-18.1-39.2-29.9-36.1-35.7-55.9-83.1-55.9-133.6s19.9-98 55.9-133.6c36-35.6 83.8-55.2 134.7-55.2 50.9 0 98.7 19.6 134.7 55.2 36.1 35.7 55.9 83.1 55.9 133.6s-19.9 98-55.9 133.6c-11.9 11.8-25.1 21.8-39.2 29.9 27.3 7.9 52.3 19.6 74.6 34.8 40.1 27.4 72.3 66.7 95.6 117 32.5 69.9 48.2 160.8 48.2 277.9 0 14.4-11.6 26-26 26zm-549.5-52h523.2c-2.1-96.8-16.3-172.2-43.1-230-19.3-41.6-45.5-73.9-77.8-95.9-37.4-25.6-84.8-38.5-140.7-38.5s-103.3 13-140.7 38.5c-32.3 22-58.5 54.3-77.8 95.9-26.8 57.8-41 133.2-43.1 230zm-322.3-81h275.1c7-67.5 21.3-123.9 43.1-170.9 3.9-8.4 8.1-16.6 12.5-24.4-1.6-1.4-3-2.9-4.3-4.7-19.1-26.7-58.5-58.6-138-58.6-75.5 0-126.9 31.6-157.1 96.5-19 40.9-29.3 94.1-31.3 162.1zm188.8-514.1c-53.3 0-96.7 42.7-96.7 95.2s43.4 95.2 96.7 95.2c53.3 0 96.7-42.7 96.7-95.2s-43.4-95.2-96.7-95.2zM1061.2-252c-76.4 0-138.6 61.4-138.6 136.8s62.2 136.8 138.6 136.8c76.4 0 138.6-61.4 138.6-136.8S1137.6-252 1061.2-252z"/></svg>