<svg xmlns="http://www.w3.org/2000/svg" width="1000" height="1000" viewBox="0 0 1000 1000"><path d="M407.4 861c-31.6 0-59.4-6.4-82.6-19-20.6-11.2-37.8-27.4-51-48.1-16.9-26.6-25-56.6-29.4-83.6L68 709.5c-11.3 0-21.3-7.6-24.4-18.5L6.4 561.3c-3.1-10.9 1.3-22.6 10.9-28.6L635.5 143c6.8-4.3 15.2-5.1 22.7-2.3 7.5 2.9 13.2 9.1 15.4 16.8l149.8 522.3c2.2 7.7.7 16-4.2 22.4-4.8 6.4-12.3 10.1-20.3 10.1h-.1l-229-.9c-4.4 26.7-12.4 56.1-29 82.2-13.1 20.8-30.3 37-50.9 48.2-23.1 12.8-50.9 19.2-82.5 19.2zM296.3 710.4c3.7 19.2 9.9 39.1 20.6 56.1 18.6 29.3 48.2 43.5 90.5 43.5 42.2 0 71.8-14.3 90.3-43.6 10.5-16.7 16.6-36.2 20.3-55.1l-221.7-.9zm-209-51.8l677.7 2.7-131-457.1L60.7 565.6l26.6 93zM958.9 571c-2 0-4-.2-6.1-.7L865.6 549c-13.7-3.3-22.1-17.1-18.7-30.8 3.3-13.7 17.2-22.1 30.8-18.7l87.3 21.3c13.7 3.3 22.1 17.1 18.7 30.8-2.9 11.6-13.3 19.4-24.8 19.4zM872 416c-11.1 0-21.3-7.3-24.5-18.5-3.9-13.5 3.9-27.7 17.5-31.5l97.1-27.9c13.5-3.9 27.7 3.9 31.5 17.5 3.9 13.5-3.9 27.7-17.5 31.5L879 415c-2.3.7-4.7 1-7 1zm-70.7-112.4c-6.3 0-12.6-2.3-17.6-7-10.2-9.7-10.6-25.9-.9-36.1l62-65.1c9.7-10.2 25.9-10.6 36.1-.9 10.2 9.7 10.6 25.9.9 36.1l-62 65.1c-5 5.2-11.8 7.9-18.5 7.9z"/></svg>