<svg xmlns="http://www.w3.org/2000/svg" width="1000" height="1000" viewBox="0 0 1000 1000"><path fill="#C6C3C3" d="M384.5-177.3c-.3 0-.5-.1-.7-.3-.4-.4-.4-1 0-1.4l5.2-5.3-5.2-5.3c-.4-.4-.4-1 0-1.4.4-.4 1-.4 1.4 0l5.9 6c.4.4.4 1 0 1.4l-5.9 6c-.2.2-.5.3-.7.3z"/><path fill="#C6C3C3" d="M390.1-183.3h-15.9c-.6 0-1-.4-1-1s.4-1 1-1h15.9c.6 0 1 .4 1 1s-.4 1-1 1z"/><path d="M378.3 885.3c-14.3 0-28.5-5.5-39.3-16.5L15.7 538.5c-20.9-21.4-20.9-55.6 0-77L339 131.2c21.4-21.7 56.2-22.1 77.9-.8 21.7 21.3 22.1 56.1.8 77.9L132.1 500l285.6 291.7c21.3 21.7 20.9 56.6-.8 77.9-10.8 10.5-24.7 15.7-38.6 15.7z"/><path d="M945 555H68.9c-30.4 0-55-24.6-55-55s24.6-55 55-55H945c30.4 0 55 24.6 55 55s-24.6 55-55 55z"/></svg>