<svg xmlns="http://www.w3.org/2000/svg" width="1000" height="1000" viewBox="0 0 1000 1000"><path d="M333.4 497.8h-309c-7.3 0-14.4-3.1-19.3-8.6-4.9-5.4-7.3-12.7-6.6-20L28 175c1.3-13.3 12.5-23.4 25.9-23.4h250c13.4 0 24.5 10.1 25.9 23.4l29.5 294.2c.7 7.3-1.7 14.6-6.6 20-4.9 5.5-11.9 8.6-19.3 8.6zm-280.2-52h251.5l-24.3-242.2h-203L53.2 445.8z"/><path d="M270.6 167.3h-52V86c0-30.5-22.4-34-39.3-34-15.4 0-26.3 3.6-32.6 10.8-6.5 7.4-7.5 18.1-7.5 23.7v79.4h-52V86.5C87.3 46.6 111.4 0 179.3 0c67.4 0 91.3 46.3 91.3 86v81.3zM211.4 995.2c-4.3 0-8.7-1.1-12.8-3.4-12.5-7.1-16.9-22.9-9.8-35.4L720.1 18c7.1-12.5 22.9-16.9 35.4-9.8 12.5 7.1 16.9 22.9 9.8 35.4L234.1 982c-4.8 8.5-13.6 13.2-22.7 13.2zM750.2 764.2c104.5 0 190.5 81.2 198.2 183.8H552c7.6-102.6 93.6-183.8 198.2-183.8m0-52c-63.6 0-124.3 23.9-170.9 67.4-46.3 43.2-74.4 101.7-79.1 164.6-1.1 14.4 3.9 28.6 13.7 39.2 9.8 10.6 23.6 16.6 38.1 16.6h396.3c14.5 0 28.3-6 38.1-16.6 9.8-10.6 14.8-24.8 13.7-39.2-4.7-62.9-32.8-121.4-79.1-164.6-46.6-43.5-107.2-67.4-170.8-67.4z"/><path d="M751.4 448.7c59.7 0 108.3 48.6 108.3 108.3 0 59.7-48.6 108.3-108.3 108.3-59.7 0-108.3-48.6-108.3-108.3 0-59.7 48.6-108.3 108.3-108.3m0-52c-88.4 0-160.3 71.9-160.3 160.3S663 717.3 751.4 717.3 911.7 645.4 911.7 557s-71.9-160.3-160.3-160.3zM750.1 806.9c-14.4 0-26-11.6-26-26v-20.1c0-14.4 11.6-26 26-26s26 11.6 26 26v20.1c0 14.3-11.6 26-26 26zM750.1 990.5c-14.4 0-26-11.6-26-26v-98.8c0-14.4 11.6-26 26-26s26 11.6 26 26v98.8c0 14.4-11.6 26-26 26z"/></svg>