<svg xmlns="http://www.w3.org/2000/svg" viewBox="0 0 1000 1000"><path d="M815.5 213.5c-17.2-40.6-41.9-77-73.4-108.3C710.7 74 674 49.4 633.3 32.3 591 14.5 546.2 5.5 500 5.5s-91 9-133.3 26.8C326 49.4 289.3 74 257.8 105.2c-31.4 31.3-56.1 67.7-73.4 108.3-17.9 42.1-27 86.7-27 132.7 0 84.6 53.6 217.7 159.4 395.6 14.4 24.3 28.9 47.8 42.9 70 .1.1.2.3.3.4 37.3 59.1 71.4 109.1 92.2 138.9 13 18.7 20.9 29.5 21.1 29.8 5.9 8.1 15.1 13.1 25 13.6H500c10.7 0 20.6-5.2 26.8-13.7.1-.1 2.7-3.7 7.2-10.1 8.3-11.8 23.2-33.2 42.1-61.4 29.4-43.8 68.4-103.8 107.1-169.2 45.6-77 82-146.5 108.2-206.4 34.4-78.7 51.1-140 51.1-187.5 0-46-9.1-90.7-27-132.7zM500 518.9c-92.2 0-167.2-74.6-167.2-166.4s75-166.4 167.2-166.4 167.2 74.6 167.2 166.4-75 166.4-167.2 166.4z"/></svg>