<svg xmlns="http://www.w3.org/2000/svg" width="1000" height="1000" viewBox="400 -400 1000 1000"><path d="M490.3 547.5H489c-31.3-1.6-50.3-20.5-51.9-51.9v-125c0-6.9 2.7-13.5 7.6-18.4L800.6-3.7C780.3-97.2 809.3-196 878.3-265c53.2-53.2 124.2-82.5 199.8-82.5h.5c75.9.1 147.3 29.7 200.9 83.4 110.9 110.9 111.3 290.9.9 401.3-54.1 54.1-126.8 83.4-201 83.4-21.3 0-42.8-2.4-64-7.3L918.7 310c-6 6-14.5 8.7-22.9 7.2L792.4 299l1.2 68.5c.1 7.1-2.6 13.9-7.7 18.9l-14.6 14.5c-4.9 4.8-11.5 7.6-18.3 7.6h-81.7l-18.1 103.9c-.8 4.9-3.1 9.4-6.4 13l-10.9 12c-4.9 5.3-11.7 8.4-18.9 8.5l-126.4 1.6h-.3zm-1.1-52.2c.5.1 1.1.1 1.7.2l112.7-1.4L623.8 378c2.2-12.5 13-21.6 25.6-21.6h92l-1.6-88c-.1-7.8 3.2-15.2 9.1-20.2s13.7-7.2 21.4-5.8l121.2 21.3 97.6-97.6c6.7-6.7 16.5-9.2 25.7-6.6 81.2 23.6 168.9 1.1 228.8-58.9 90.1-90.1 89.7-237.1-.9-327.7-43.9-43.9-102.2-68.1-164.2-68.2h-.4c-61.8 0-119.7 23.9-163.1 67.3-59.4 59.4-82.6 145.8-60.6 225.6 2.5 9-.1 18.7-6.7 25.3L489 381.4v112.1c.1.7.1 1.3.2 1.8zM1126.4-5.4c-27.1 0-54.1-10.3-74.7-30.9-41.2-41.3-41.1-108.3 0-149.5 19.9-19.9 46.5-30.9 74.8-30.9h.1c28.3 0 54.8 11 74.6 30.9 41.1 41.2 41.1 108.2 0 149.4-20.6 20.7-47.7 31-74.8 31zm-37.9-143.5c-10 10-15.6 23.5-15.6 37.9 0 14.4 5.5 27.9 15.6 38 10 10 23.5 15.5 37.9 15.5 14.4 0 27.9-5.5 38-15.6 20.8-20.9 20.8-55-.1-75.9-10-10.1-23.5-15.6-37.9-15.6-14.3.1-27.8 5.6-37.9 15.7z"/></svg>