<svg xmlns="http://www.w3.org/2000/svg" width="1000" height="1000" viewBox="0 0 1000 1000"><path d="M915.9 998H81.1c-19.3 0-35-15.7-35-35s15.7-35 35-35h48.3V156c0-19.3 15.7-35 35-35h56.3V35.9c0-19.3 15.7-35 35-35h485.4c19.3 0 35 15.7 35 35V121h56.4c19.3 0 35 15.7 35 35v772h48.3c19.3 0 35 15.7 35 35s-15.6 35-34.9 35zm-265.8-70h147.4V191h-598v737h147.4V729.7c0-19.3 15.7-35 35-35h233.3c19.3 0 35 15.7 35 35V928zm-233.2 0h163.3V764.7H416.9V928zM290.8 121h415.4V70.9H290.8V121zm411.7 488.4c-19.3 0-35-15.7-35-35v-75.9c0-19.3 15.7-35 35-35s35 15.7 35 35v75.9c0 19.3-15.7 35-35 35zm-136 0c-19.3 0-35-15.7-35-35v-75.9c0-19.3 15.7-35 35-35s35 15.7 35 35v75.9c0 19.3-15.7 35-35 35zm-136 0c-19.3 0-35-15.7-35-35v-75.9c0-19.3 15.7-35 35-35s35 15.7 35 35v75.9c0 19.3-15.6 35-35 35zm-135.9 0c-19.3 0-35-15.7-35-35v-75.9c0-19.3 15.7-35 35-35s35 15.7 35 35v75.9c0 19.3-15.7 35-35 35zm407.9-184.9c-19.3 0-35-15.7-35-35v-75.9c0-19.3 15.7-35 35-35s35 15.7 35 35v75.9c0 19.3-15.7 35-35 35zm-136 0c-19.3 0-35-15.7-35-35v-75.9c0-19.3 15.7-35 35-35s35 15.7 35 35v75.9c0 19.3-15.7 35-35 35zm-136 0c-19.3 0-35-15.7-35-35v-75.9c0-19.3 15.7-35 35-35s35 15.7 35 35v75.9c0 19.3-15.6 35-35 35zm-135.9 0c-19.3 0-35-15.7-35-35v-75.9c0-19.3 15.7-35 35-35s35 15.7 35 35v75.9c0 19.3-15.7 35-35 35z"/></svg>