<svg xmlns="http://www.w3.org/2000/svg" viewBox="0 0 1000 1000"><path d="M293.1 788c-18.7 0-33.9-15.3-33.9-34s15.2-34 33.9-34h208.4c18.7 0 33.9 15.3 33.9 34s-15.2 34-33.9 34H293.1zM293.1 665c-18.7 0-33.9-15.3-33.9-34s15.2-34 33.9-34h208.4c18.7 0 33.9 15.3 33.9 34s-15.2 34-33.9 34H293.1zM293.1 541c-18.7 0-33.9-15.3-33.9-34s15.2-34 33.9-34h208.4c18.7 0 33.9 15.3 33.9 34s-15.2 34-33.9 34H293.1zM293.1 421c-18.7 0-33.9-15.3-33.9-34s15.2-34 33.9-34h208.4c18.7 0 33.9 15.3 33.9 34s-15.2 34-33.9 34H293.1zM666.8 421c-18.7 0-33.9-15.3-33.9-34s15.2-34 33.9-34H705c18.7 0 33.9 15.3 33.9 34s-15.2 34-33.9 34h-38.2zM666.8 541c-18.7 0-33.9-15.3-33.9-34s15.2-34 33.9-34H705c18.7 0 33.9 15.3 33.9 34s-15.2 34-33.9 34h-38.2zM666.8 665c-18.7 0-33.9-15.3-33.9-34s15.2-34 33.9-34H705c18.7 0 33.9 15.3 33.9 34s-15.2 34-33.9 34h-38.2zM664.9 788c-18.7 0-33.9-15.3-33.9-34s15.2-34 33.9-34h38.2c18.7 0 33.9 15.3 33.9 34s-15.2 34-33.9 34h-38.2zM342.5 280c-18.7 0-33.9-14.8-33.9-33.5s15.2-33.5 33.9-33.5h313c18.7 0 33.9 14.8 33.9 33.5S674.2 280 655.5 280h-313z"/><path d="M187 1000c-5.7 0-11.4-1.5-16.4-4.2-10.8-6-17.6-17.3-17.6-29.7V33.9c0-12.3 6.7-23.6 17.5-29.6 5-2.8 10.7-4.3 16.5-4.3 6.3 0 12.5 1.8 17.9 5.1l98.4 61.3L377 11.1c5.9-4.4 12.9-6.8 20.3-6.8 6.7 0 13.2 2 18.8 5.7L500 65.7l69.4-54.2c5.9-4.6 13.3-7.2 20.9-7.2 6.5 0 12.9 1.9 18.4 5.4l89.2 57.5 97-61.9C800.2 1.8 806.5 0 813 0c5.7 0 11.4 1.4 16.3 4.2 10.9 5.9 17.7 17.3 17.7 29.7v932.2c0 12.3-6.8 23.7-17.6 29.7-5 2.8-10.7 4.2-16.4 4.2-6.4 0-12.7-1.8-18.1-5.2l-96.8-61.1-73.6 55.2c-5.9 4.4-12.9 6.8-20.3 6.8-6.7 0-13.2-2-18.7-5.7l-83.9-55.7-69.4 54.2c-5.9 4.6-13.3 7.2-20.9 7.2-6.5 0-12.9-1.9-18.4-5.4l-89.3-57.6-98.6 62.1c-5.4 3.4-11.6 5.2-18 5.2zm313-141.3c6.7 0 13.2 2 18.8 5.7l84.3 56 73.1-54.9c5.9-4.4 12.9-6.8 20.3-6.8 6.4 0 12.6 1.8 18 5.2l64.5 40.8v-809L715.9 136c-5.5 3.5-11.7 5.3-18.2 5.3s-12.9-1.9-18.3-5.4l-87.2-56.2-69.7 54.4c-5.9 4.6-13.3 7.2-20.9 7.2-6.7 0-13.2-2-18.7-5.7l-84.3-56-73.1 54.9c-5.9 4.4-12.9 6.8-20.3 6.8-6.3 0-12.5-1.8-17.8-5.1L221 94.9v809.9l64.9-40.9c5.4-3.4 11.6-5.2 18-5.2 6.5 0 12.9 1.9 18.3 5.4l87.2 56.2 69.7-54.4c6-4.7 13.4-7.2 20.9-7.2z"/></svg>