<svg xmlns="http://www.w3.org/2000/svg" width="600" height="600" viewBox="0 0 600 600"><path fill="#0AAAFF" d="M523.5 76.5C474.8 27.8 410 1 341.2 1h-.1c-68.9 0-133.6 26.9-182.3 75.6-48.7 48.6-75.5 113.4-75.5 182.3 0 56.9 18.3 111 52.2 155.5L11.4 538.5c-13.8 13.8-13.8 36.3 0 50.1 6.9 6.9 16 10.4 25.1 10.4 9.1 0 18.1-3.5 25.1-10.4l124.1-124c44.5 33.8 98.6 52.3 155.5 52.3h.1c68.9 0 133.6-26.9 182.3-75.6 48.7-48.7 75.5-113.5 75.5-182.4-.1-68.9-26.9-133.7-75.6-182.4zm-50.1 314.6C438 426.4 391.1 446 341.2 446c-49.9 0-97.1-19.5-132.1-54.8s-54.8-82.3-54.8-132.2c0-49.9 19.4-96.8 54.8-132.2 35.2-35.4 82.1-54.8 132-54.8 49.9 0 96.9 19.4 132.2 54.7C508.6 162 528 209 528 258.9s-19.4 96.9-54.6 132.2z"/></svg>