<svg xmlns="http://www.w3.org/2000/svg" width="1000" height="1000" viewBox="0 0 1000 1000"><path d="M842.9 72l18.3 49.5-276 428.5c-3 4.4-4.7 9.7-4.7 15.1v299.4L418.4 928V565.1c0-5.3-1.6-10.6-4.6-15l-275-428.2L158.6 72h684.3m0-70H158.6c-28.7 0-54.5 17.5-65.1 44.2L73.7 96c-8.3 21-6 44.7 6.2 63.7l268.5 418.1V928c0 23.1 11.4 44.8 30.6 57.8 11.8 8 25.6 12.2 39.4 12.2 8.6 0 17.3-1.6 25.6-4.8l162.1-63.6c26.8-10.5 44.4-36.4 44.4-65.2V577.9L920 159.4c11.9-18.5 14.4-41.5 6.8-62.2l-18.3-49.5C898.4 20.2 872.2 2 842.9 2z"/></svg>