<svg xmlns="http://www.w3.org/2000/svg" width="1000" height="1000" viewBox="0 0 1000 1000"><path d="M500.4 997c-67.1 0-132.3-13.2-193.6-39.1-59.2-25.1-112.4-60.9-158.1-106.6S67.2 752.5 42.1 693.2C16.2 631.9 3 566.7 3 499.6S16.2 367.3 42.1 306c25.1-59.2 60.9-112.4 106.6-158.1 45.7-45.7 98.9-81.5 158.1-106.6 61.3-26 126.5-39.1 193.6-39.1S632.7 15.3 694 41.3c59.2 25.1 112.4 60.9 158.1 106.6 45.7 45.7 81.5 98.9 106.6 158.1 25.9 61.3 39.1 126.5 39.1 193.6s-13.2 132.3-39.1 193.6c-25.1 59.2-60.9 112.4-106.6 158.1S753.3 932.8 694 957.9C632.7 983.8 567.5 997 500.4 997zm0-924.8c-57.7 0-113.7 11.3-166.4 33.6-50.9 21.5-96.6 52.3-135.9 91.6s-70.1 85-91.6 135.9C84.3 385.9 73 441.9 73 499.6S84.3 613.3 106.6 666c21.5 50.9 52.3 96.6 91.6 135.9 39.3 39.3 85 70.1 135.9 91.6 52.7 22.3 108.6 33.6 166.4 33.6s113.7-11.3 166.4-33.6c50.9-21.5 96.6-52.3 135.9-91.6 39.3-39.3 70.1-85 91.6-135.9 22.3-52.7 33.6-108.6 33.6-166.4s-11.3-113.7-33.6-166.4c-21.5-50.9-52.3-96.6-91.6-135.9-39.3-39.3-85-70.1-135.9-91.6-52.8-22.2-108.8-33.5-166.5-33.5zm0 735.8c-58.8 0-106.6-47.8-106.6-106.6 0-55.2 42.1-100.7 95.9-106l53.1-245.8c4.1-18.9 22.7-30.9 41.6-26.8 18.9 4.1 30.9 22.7 26.8 41.6l-53.4 247.3c29.6 19 49.2 52.1 49.2 89.8 0 58.7-47.8 106.5-106.6 106.5zm0-143.1c-20.2 0-36.6 16.4-36.6 36.6 0 20.2 16.4 36.6 36.6 36.6s36.6-16.4 36.6-36.6c0-16.3-10.7-30.1-25.4-34.8-.5-.1-.9-.2-1.4-.3-1.2-.3-2.3-.6-3.5-.9-2-.5-4.1-.6-6.3-.6zm344.7-130.3h-92.7c-19.3 0-35-15.7-35-35s15.7-35 35-35h92.7c19.3 0 35 15.7 35 35s-15.7 35-35 35zm-594 0h-92.7c-19.3 0-35-15.7-35-35s15.7-35 35-35h92.7c19.3 0 35 15.7 35 35s-15.7 35-35 35zm456.6-146.3c-9 0-17.9-3.4-24.8-10.3-13.7-13.7-13.7-35.8 0-49.5l65.6-65.5c13.7-13.7 35.8-13.7 49.5 0 13.7 13.7 13.7 35.8 0 49.5L732.4 378c-6.8 6.9-15.8 10.3-24.7 10.3zm-391-19.8c-9 0-17.9-3.4-24.7-10.2l-65.6-65.5c-13.7-13.7-13.7-35.8 0-49.5 13.7-13.7 35.8-13.7 49.5 0l65.6 65.5c13.7 13.7 13.7 35.8 0 49.5a35.31 35.31 0 0 1-24.8 10.2zM500.4 284c-19.3 0-35-15.7-35-35v-92.7c0-19.3 15.7-35 35-35s35 15.7 35 35V249c0 19.3-15.7 35-35 35z"/></svg>