<svg data-name="Layer 1" xmlns="http://www.w3.org/2000/svg" viewBox="0 0 995.3 990.45"><title>aur</title><path d="M168.88 506.8a21.87 21.87 0 0 1 0-43.73h134a21.87 21.87 0 0 1 0 43.73h-134zM168.88 427.69a21.87 21.87 0 0 1 0-43.73h134a21.87 21.87 0 0 1 0 43.73h-134zM168.88 347.94a21.87 21.87 0 0 1 0-43.73h134a21.87 21.87 0 0 1 0 43.73h-134zM168.88 270.76a21.87 21.87 0 0 1 0-43.73h134a21.87 21.87 0 0 1 0 43.73h-134zM409.23 270.76a21.87 21.87 0 0 1 0-43.73h24.57a21.87 21.87 0 0 1 0 43.73h-24.57zM409.23 347.94a21.87 21.87 0 0 1 0-43.73h24.57a21.87 21.87 0 0 1 0 43.73h-24.57zM409.23 427.69a21.87 21.87 0 0 1 0-43.73h24.57a21.87 21.87 0 0 1 0 43.73h-24.57zM408 506.8a21.87 21.87 0 0 1 0-43.73h24.57a21.87 21.87 0 0 1 0 43.73H408zM200.65 180.08a21.55 21.55 0 1 1 0-43.09h201.3a21.55 21.55 0 1 1 0 43.09h-201.3z"/><path d="M100.65 643.14a22.36 22.36 0 0 1-10.55-2.7 21.87 21.87 0 0 1-11.32-19.1V21.8A21.91 21.91 0 0 1 100.65 0a22.13 22.13 0 0 1 11.51 3.28l63.28 39.42 47.4-35.57a21.72 21.72 0 0 1 25.15-.71l54 35.82L346.58 7.4a21.86 21.86 0 0 1 25.28-1.16l57.37 37 62.38-39.83a21.63 21.63 0 0 1 22.12-.71 21.72 21.72 0 0 1 11.38 19.1v599.54a21.94 21.94 0 0 1-11.32 19.1 21.64 21.64 0 0 1-10.55 2.7 21.88 21.88 0 0 1-11.64-3.34l-62.25-39.3-47.33 35.5a21.62 21.62 0 0 1-25.08.71l-54-35.82-44.59 34.86a21.86 21.86 0 0 1-25.28 1.16l-57.43-37-63.42 39.89a21.66 21.66 0 0 1-11.57 3.34zm201.3-90.88a21.9 21.9 0 0 1 12.09 3.67l54.22 36 47-35.31a21.69 21.69 0 0 1 24.63-1l41.46 26.23V61.55L440.8 87.47a21.74 21.74 0 0 1-23.45-.07l-56.1-36.14-44.83 35a22 22 0 0 1-13.44 4.63 21.54 21.54 0 0 1-12-3.67l-54.22-36-47 35.31a21.65 21.65 0 0 1-24.5 1.09L122.51 61v520.92l41.74-26.3a21.69 21.69 0 0 1 23.35.13l56.08 36.14 44.83-35a21.83 21.83 0 0 1 13.44-4.62z"/><path d="M30.99 990.45a31 31 0 0 1-21.91-52.9l277.1-277.14c11.62-11.62 32.2-11.62 43.82 0l194.45 194.45L941.12 438a31 31 0 1 1 43.82 43.82L546.35 920.6c-11.62 11.62-32.2 11.62-43.82 0L308.09 726.14 52.9 981.37a30.89 30.89 0 0 1-21.91 9.08z"/><path d="M964.35 642.55a31 31 0 0 1-31-30.73l-1-121.21-135.58-1.1a31 31 0 0 1 .24-62h.24l166.09 1.36a31 31 0 0 1 30.75 30.73l1.27 151.68a31 31 0 0 1-30.72 31.25h-.29z"/></svg>