<svg data-name="Layer 1" xmlns="http://www.w3.org/2000/svg" viewBox="0 0 976.5 991.22"><title>sps</title><path d="M887.35 639.04V487.2a17.88 17.88 0 0 0-17.86-17.86h-47.57v-32.82h96.74a17.84 17.84 0 0 0 17.86-17.86v-81.55a17.88 17.88 0 0 0-17.86-17.86H689.37a17.84 17.84 0 0 0-17.86 17.86v81.55a17.88 17.88 0 0 0 17.86 17.86h96.81v32.83H478.77a310.12 310.12 0 0 0-167.07-48.89c-162.64 0-299.5 127-311.58 289.07a47.57 47.57 0 0 0 47.43 51.1h298.44l-30.26 65a17.75 17.75 0 0 0-2 5.88c0 .27-.09.54-.12.8s0 .36-.05.55c0 .49-.07 1-.07 1.47V973.31a17.88 17.88 0 0 0 17.82 17.89h627.25a17.93 17.93 0 0 0 17.93-17.79V834.38a17.72 17.72 0 0 0-2.39-8.89zm-180.12-284h193.61v45.84h-95.41c-.46 0-.92-.07-1.4-.07s-.93 0-1.4.07h-95.4v-45.84zM431.77 660.66H858.1l72.48 155.87H359.22zm419.86-35.64H438.24V505.07h413.39v119.94zm-516.16 88.05V578.46a23.78 23.78 0 0 0-47.56 0v134.61H47.56c9.61-128.94 111.93-232.47 240.36-243.96v32.09a23.78 23.78 0 0 0 47.56 0v-32.09a262.81 262.81 0 0 1 67.38 15.09 17.94 17.94 0 0 0-.27 3v151.84l-34.46 74h-32.66zm605.24 242.51H349.09V852.2h591.62v103.38z"/><path d="M600.5 921.77h88.87a17.86 17.86 0 0 0 0-35.71H600.5a17.86 17.86 0 0 0 0 35.71zM468.33 695.81a18.62 18.62 0 0 0-5.2 12.65 17.76 17.76 0 0 0 5.2 12.65 18.48 18.48 0 0 0 12.65 5.13 17.93 17.93 0 0 0 12.65-5.13 18 18 0 0 0 0-25.31c-6.71-6.6-18.71-6.39-25.3.01zM451.92 754.72a17.82 17.82 0 0 0 0 25.17 17.35 17.35 0 0 0 12.65 5.2 17.7 17.7 0 0 0 12.65-5.2 17.82 17.82 0 0 0 0-25.17c-6.71-6.75-18.66-6.61-25.3 0zM632.42 695.81a17.66 17.66 0 0 0 0 25.31 17.44 17.44 0 0 0 12.44 5.13 17.69 17.69 0 0 0 12.65-5.13 17.66 17.66 0 0 0 0-25.31c-6.53-6.61-18.48-6.61-25.09 0zM632.42 754.79a17.49 17.49 0 0 0 0 25.17 17.29 17.29 0 0 0 12.44 5.34 17.8 17.8 0 0 0 12.65-30.51c-6.53-6.59-18.48-6.59-25.09 0zM739.35 721.12a18 18 0 0 0 0-25.31c-6.61-6.61-18.77-6.61-25.17 0a17.66 17.66 0 0 0 0 25.31 18 18 0 0 0 25.17 0zM722.69 754.79a17.65 17.65 0 0 0-5.34 12.65 17.86 17.86 0 1 0 30.51-12.65c-6.82-6.59-18.77-6.59-25.17 0zM550.52 695.81a18 18 0 0 0-5.2 12.65 17.52 17.52 0 0 0 5.2 12.65 18.27 18.27 0 0 0 12.51 5.13 17.75 17.75 0 0 0 12.65-30.44c-6.6-6.6-18.55-6.6-25.16.01zM542.01 754.72a17.24 17.24 0 0 0-5.2 12.65 17.43 17.43 0 0 0 5.2 12.51 17.7 17.7 0 0 0 12.65 5.2 17.94 17.94 0 0 0 12.65-5.2 17.82 17.82 0 0 0 0-25.17c-6.6-6.6-18.69-6.6-25.3.01zM821.47 721.12a18.62 18.62 0 0 0 5.2-12.65 18 18 0 0 0-5.2-12.44c-6.61-6.82-18.56-6.82-25.31-.21a18 18 0 0 0 0 25.31 17.93 17.93 0 0 0 12.65 5.13 18.55 18.55 0 0 0 12.66-5.14zM812.61 754.72a17.82 17.82 0 0 0 0 25.17 18 18 0 0 0 25.31 0 17.5 17.5 0 0 0 5.2-12.51 18.1 18.1 0 0 0-5.2-12.65c-6.75-6.62-18.7-6.62-25.31-.01zM644.92 581.28h141.26a17.82 17.82 0 1 0 0-35.64H644.92a17.82 17.82 0 1 0 0 35.64zM313.36 383.79c105.8 0 191.88-86.09 191.88-191.9S419.17 0 313.36 0 121.5 86.08 121.5 191.89s86.07 191.9 191.86 191.9zm0-336.22c79.59 0 144.32 64.75 144.32 144.32S392.92 336.2 313.36 336.2s-144.3-64.75-144.3-144.34 64.73-144.29 144.3-144.29z"/></svg>