<svg xmlns="http://www.w3.org/2000/svg" viewBox="0 0 1000 1000"><path d="M964.4 90h-89.5c-18.7 0-34 15.3-34 34s15.3 34 34 34H930v97H158v-97h67.2c18.7 0 34-15.3 34-34s-15.3-34-34-34H124c-18.8 0-34 15-34 33.7v300.8c0 18.7 15.3 34 34 34s34-15.3 34-34V323h772v525H158v-98c0-18.7-15.3-34-34-34s-34 15.3-34 34v131.5c0 18.7 15.3 34.5 34 34.5h840.4c18.7 0 33.6-15.8 33.6-34.5V123.7c0-18.8-14.9-33.7-33.6-33.7z"/><path d="M444.8 158h209.7c18.7 0 34-15.3 34-34s-15.3-34-34-34H444.8c-18.7 0-34 15.3-34 34s15.3 34 34 34zM335 214c18.7 0 34-15.3 34-34V56.2c0-18.7-15.3-34-34-34s-34 15.3-34 34V180c0 18.7 15.3 34 34 34zM766 214c18.7 0 34-15.3 34-34V56.2c0-18.7-15.3-34-34-34s-34 15.3-34 34V180c0 18.7 15.3 34 34 34zM479.6 707.2c-13.3 13.3-13.3 34.9 0 48.2 6.4 6.5 14.9 10 24 10 9 0 17.6-3.5 24.1-10l144.1-144.1c6.4-6.4 10.1-14.9 10.1-24v-.1c0-8.7-3.4-17.1-9.5-23.4 0 0-.5-.4-.7-.6L527.5 419c-6.4-6.5-14.9-10-24-10-9 0-17.6 3.5-24 9.9-6.5 6.4-10 14.9-10 24s3.6 17.6 10 24l86.1 86H36c-18.7 0-34 15.3-34 34s15.3 34 34 34h529.7l-86.1 86.3z"/></svg>