<svg data-name="Layer 1" xmlns="http://www.w3.org/2000/svg" viewBox="0 0 971.6 977.8"><title>splh</title><path d="M436.8 879h126.4a25.4 25.4 0 0 0 0-50.8H436.8a25.4 25.4 0 0 0 0 50.8zM248.8 557.6a26.49 26.49 0 0 0-7.4 18 25.25 25.25 0 0 0 7.4 18 26.29 26.29 0 0 0 18 7.3 25.5 25.5 0 0 0 18-7.3 25.59 25.59 0 0 0 0-36c-9.6-9.4-26.6-9.1-36 0zM225.5 641.4a25.35 25.35 0 0 0 0 35.8 24.68 24.68 0 0 0 18 7.4 25.18 25.18 0 0 0 18-7.4 25.35 25.35 0 0 0 0-35.8c-9.6-9.6-26.6-9.4-36 0zM482.2 557.6a25.12 25.12 0 0 0 0 36 24.81 24.81 0 0 0 17.7 7.3 25.16 25.16 0 0 0 18-7.3 25.12 25.12 0 0 0 0-36c-9.3-9.4-26.3-9.4-35.7 0zM482.2 641.5a24.88 24.88 0 0 0 0 35.8 24.59 24.59 0 0 0 17.7 7.6 25.32 25.32 0 0 0 18-43.4c-9.3-9.4-26.3-9.4-35.7 0zM634.3 593.6a25.59 25.59 0 0 0 0-36c-9.4-9.4-26.7-9.4-35.8 0a25.12 25.12 0 0 0 0 36 25.6 25.6 0 0 0 35.8 0zM610.6 641.5a25.1 25.1 0 0 0-7.6 18 25.4 25.4 0 1 0 43.4-18c-9.7-9.4-26.7-9.4-35.8 0zM365.7 557.6a25.6 25.6 0 0 0-7.4 18 24.92 24.92 0 0 0 7.4 18 26 26 0 0 0 17.8 7.3 25.25 25.25 0 0 0 18-43.3c-9.4-9.4-26.4-9.4-35.8 0zM353.6 641.4a24.52 24.52 0 0 0-7.4 18 24.8 24.8 0 0 0 7.4 17.8 25.18 25.18 0 0 0 18 7.4 25.52 25.52 0 0 0 18-7.4 25.35 25.35 0 0 0 0-35.8c-9.4-9.4-26.6-9.4-36 0zM751.1 593.6a26.49 26.49 0 0 0 7.4-18 25.58 25.58 0 0 0-7.4-17.7c-9.4-9.7-26.4-9.7-36-.3a25.59 25.59 0 0 0 0 36 25.5 25.5 0 0 0 18 7.3 26.39 26.39 0 0 0 18-7.3zM738.5 641.4a25.35 25.35 0 0 0 0 35.8 25.59 25.59 0 0 0 36 0 24.89 24.89 0 0 0 7.4-17.8 25.75 25.75 0 0 0-7.4-18c-9.6-9.4-26.6-9.4-36 0zM500 394.7h200.9a25.35 25.35 0 1 0 0-50.7H500a25.35 25.35 0 1 0 0 50.7z"/><path d="M968.12 741.9l-123.32-265v-216a25.44 25.44 0 0 0-25.4-25.4h-67.7v-46.7h137.6a25.37 25.37 0 0 0 25.4-25.4v-116A25.44 25.44 0 0 0 889.3 22H563.2a25.37 25.37 0 0 0-25.4 25.4v116a25.44 25.44 0 0 0 25.4 25.4h137.7v46.7H443.51c.27-4.47.42-9 .42-13.52 0-122.41-99.57-222-222-222S0 99.57 0 222c0 99.15 65.38 183.33 155.3 211.7v43.16L31.79 742.19a25.32 25.32 0 0 0-3.29 12.51v197.7a25.44 25.44 0 0 0 25.4 25.4h892.2a25.5 25.5 0 0 0 25.5-25.3V754.7a25.23 25.23 0 0 0-3.48-12.8zM588.6 138.1V72.9H864v65.2H728.49c-.72-.06-1.45-.1-2.19-.1s-1.47 0-2.19.1H588.6zM52.14 222c0-93.64 76.19-169.84 169.83-169.84S391.79 128.34 391.79 222 315.61 391.79 222 391.79 52.14 315.62 52.14 222zM222 443.93c100 0 184.81-66.52 212.45-157.63H794v170.6H206v-13.55c5.28.38 10.6.58 16 .58zm-25.2 63.67h606.4l103.1 221.7H93.6zm723.9 419.5H79.2v-147h841.5v147z"/><path d="M288.28 288.94A26.08 26.08 0 0 0 302 240.67l-54-33.26v-89a26.07 26.07 0 0 0-52.14 0v99.85c0 .62 0 1.23.07 1.84a26.08 26.08 0 0 0 12.31 24.08l66.33 40.89a26 26 0 0 0 13.71 3.87z"/></svg>