<svg xmlns="http://www.w3.org/2000/svg" viewBox="0 0 1000 1000"><path d="M594.2 722.3c-20.3-23.2-55.6-25.3-78.6-5.2L396 821.8V500.5c0-30.7-24.8-55.6-55.5-55.6S285 469.8 285 500.5v321.3L165.8 717.1c-23-20.2-58-18-78.3 5.2-20.2 23.1-17.9 58.2 5.2 78.4l211.5 185.6c10.5 9.2 23.6 13.8 36.6 13.8 13.1 0 26.2-4.6 36.6-13.8L589 800.7c23.1-20.3 25.4-55.4 5.2-78.4zM907.3 199.3L695.8 13.8c-20.9-18.3-52.3-18.3-73.2 0L411 199.3c-23.1 20.2-25.4 55.3-5.2 78.4 11 12.5 26.4 18.9 41.8 18.9 13 0 25.8-4.6 36.3-13.8L603 178.2v321.3c0 30.7 24.8 55.6 55.5 55.6s55.5-24.8 55.5-55.6V178.1l119.7 104.7c22.9 20.1 58.2 18 78.6-5.2 20.2-23 18-58.1-5-78.3z"/></svg>