<svg xmlns="http://www.w3.org/2000/svg" viewBox="0 0 1000 1000"><path d="M461.3 997.5c-9.3 0-18.2-3.7-24.8-10.3L12.8 563.6C6.2 557 2.5 548 2.5 538.7s3.7-18.2 10.3-24.8L513.9 12.8C522 4.7 533.4 1.1 544.7 3l361.7 61.9c14.7 2.5 26.2 14 28.7 28.7L997 455.3c1.9 11.2-1.7 22.7-9.8 30.7L486.1 987.2c-6.6 6.6-15.5 10.3-24.8 10.3zm-374-458.8l374 374 463.4-463.5L870 129.9 550.7 75.3 87.3 538.7z"/><path d="M699.3 423.4c-32.8 0-63.6-12.8-86.7-35.9-23.2-23.2-35.9-54-35.9-86.7 0-32.8 12.8-63.6 35.9-86.7 23.2-23.2 54-35.9 86.7-35.9 32.8 0 63.6 12.8 86.7 35.9 23.2 23.2 35.9 54 35.9 86.7 0 32.8-12.8 63.6-35.9 86.7-23.1 23.1-54 35.9-86.7 35.9zm0-175.1c-14 0-27.2 5.5-37.1 15.4-9.9 9.9-15.4 23.1-15.4 37.1s5.5 27.2 15.4 37.1c9.9 9.9 23.1 15.4 37.1 15.4s27.2-5.5 37.1-15.4c9.9-9.9 15.4-23.1 15.4-37.1s-5.5-27.2-15.4-37.1c-9.9-10-23.1-15.4-37.1-15.4z"/></svg>