<svg xmlns="http://www.w3.org/2000/svg" viewBox="0 0 1000 1000"><path d="M870.6 1000H129.5h-.1c-71.1-.1-129-58-129-129V406.4c0-8.1 3.2-15.8 8.9-21.5 5.7-5.6 13.4-8.8 21.4-8.8h.2l166.8.9-.2-346.7c0-8 3.2-15.7 8.9-21.4C212 3.2 219.7 0 227.7 0h741.1c16.7 0 30.3 13.5 30.3 30.3l.6 840.7c-.1 71.1-57.9 129-129.1 129zm-631.7-60.6h631.8c37.7 0 68.4-30.7 68.4-68.4l-.5-810.4H258l.5 810.4c.1 25.1-7.1 48.6-19.6 68.4zM61 436.8V871c0 37.7 30.8 68.4 68.6 68.4 37.7 0 68.4-30.7 68.4-68.4l-.3-433.4-136.7-.8z"/><path d="M352.4 577.5c-16.7 0-30.3-13.6-30.3-30.3V347.1c0-16.7 13.6-30.3 30.3-30.3 16.7 0 30.3 13.6 30.3 30.3v200.1c0 16.7-13.6 30.3-30.3 30.3zM473.9 577.5c-16.7 0-30.3-13.6-30.3-30.3V260.8c0-16.7 13.6-30.3 30.3-30.3s30.3 13.6 30.3 30.3v286.4c0 16.7-13.6 30.3-30.3 30.3zM595.4 577.5c-16.7 0-30.3-13.6-30.3-30.3V404.3c0-16.7 13.6-30.3 30.3-30.3 16.7 0 30.3 13.6 30.3 30.3v142.9c0 16.7-13.5 30.3-30.3 30.3zM838.5 577.5c-16.7 0-30.3-13.6-30.3-30.3V322.7c0-16.7 13.6-30.3 30.3-30.3 16.7 0 30.3 13.6 30.3 30.3v224.5c0 16.7-13.5 30.3-30.3 30.3zM717 577.5c-16.7 0-30.3-13.6-30.3-30.3V188.3c0-16.7 13.6-30.3 30.3-30.3 16.7 0 30.3 13.6 30.3 30.3v358.9c0 16.7-13.6 30.3-30.3 30.3zM838.5 744.5H352.4c-16.7 0-30.3-13.6-30.3-30.3 0-16.7 13.6-30.3 30.3-30.3h486.2c16.7 0 30.3 13.6 30.3 30.3-.1 16.8-13.6 30.3-30.4 30.3zM838.5 858.8H352.4c-16.7 0-30.3-13.6-30.3-30.3s13.6-30.3 30.3-30.3h486.2c16.7 0 30.3 13.6 30.3 30.3s-13.6 30.3-30.4 30.3z"/></svg>