<svg xmlns="http://www.w3.org/2000/svg" viewBox="0 0 1000 1000"><path d="M997.8 669c0-.1 0-.1 0 0 0-.9 0-1.7-.1-2.5v-.3c0-.7-.1-1.4-.2-2.2 0-.2 0-.4-.1-.7-.1-.6-.1-1.1-.2-1.7-.1-.4-.1-.8-.2-1.1-.1-.4-.1-.8-.2-1.1-.1-.6-.2-1.1-.3-1.7 0-.2-.1-.4-.1-.6-.2-.7-.3-1.4-.5-2.1 0-.1-.1-.2-.1-.3-.2-.8-.5-1.6-.7-2.4v-.1L824.9 146.5c-5.8-22.6-26.4-39.5-50.8-39.5H226c-.8 0-1.6.2-2.4.2-.3 0-.6.1-.8.1-.5 0-1 .1-1.6.2-.3 0-.7.1-1 .1-.5.1-.9.1-1.3.2-.4 0-.7.1-1.1.2-.4.1-.8.1-1.2.2-.8.1-1.6.3-2.3.5-.2.1-.5.1-.7.2-.5.1-1 .3-1.5.4-.2.1-.4.1-.6.2-.5.2-1.1.3-1.6.5-.1 0-.2.1-.2.1-1.8.6-3.5 1.3-5.2 2-.1.1-.3.1-.4.2-.5.2-1 .5-1.5.7-.2.1-.3.2-.5.3-.5.2-1 .5-1.4.8-.1.1-.3.2-.4.2-.8.5-1.7 1-2.5 1.5-.2.1-.5.3-.7.4-.3.2-.7.5-1 .7-.3.2-.6.4-.9.7l-.9.6c-.4.3-.7.6-1.1.8-.2.2-.5.4-.7.6-.6.5-1.1.9-1.6 1.4 0 0-.1 0-.1.1-.6.5-1.1 1.1-1.7 1.6l-.4.4c-.4.4-.8.9-1.2 1.3-.2.2-.3.3-.4.5-.4.4-.8.9-1.1 1.3-.1.2-.3.3-.4.5-.4.5-.9 1.1-1.3 1.7 0 .1-.1.1-.1.2-.5.6-.9 1.2-1.3 1.9-.2.3-.3.5-.5.8-.2.4-.5.7-.7 1.1-.2.3-.4.7-.6 1-.2.3-.3.6-.5.9-.2.4-.5.8-.7 1.2-.1.2-.2.3-.3.5-1.2 2.3-2.2 4.7-3.1 7.2v.1l-.3 1v.1L5 651.8v.1c-.3.8-.5 1.6-.7 2.4 0 .1-.1.2-.1.3-.2.7-.4 1.4-.5 2.1-.1.2-.1.4-.2.7-.1.5-.2 1.1-.3 1.7-.1.4-.1.8-.2 1.2-.1.4-.1.8-.2 1.1-.1.6-.2 1.1-.2 1.7 0 .2 0 .4-.1.6-.1.7-.1 1.5-.2 2.2v.3c0 .8-.1 1.7-.1 2.5v1.8c.4 59.1 23.7 114.6 65.5 156.5 42.3 42 98.5 65.3 158.3 65.3 59.8 0 115.9-23.3 158.2-65.5 41.9-41.9 65.1-97.4 65.5-156.5v-1.6-.2-.1c0-.8 0-1.7-.1-2.5v-.3c0-.7-.1-1.4-.2-2.2 0-.2 0-.4-.1-.7-.1-.6-.1-1.1-.2-1.7-.1-.4-.1-.8-.2-1.1-.1-.4-.1-.8-.2-1.1-.1-.6-.2-1.1-.3-1.7 0-.2-.1-.4-.1-.6-.2-.7-.3-1.4-.5-2.1 0-.1-.1-.2-.1-.3-.2-.8-.5-1.6-.7-2.4v-.2L299 212h402.1l-148 440.1v.1c-.3.8-.5 1.6-.7 2.4 0 .1-.1.2-.1.3-.2.7-.4 1.4-.5 2.1-.1.2-.1.4-.1.7-.1.6-.2 1.1-.3 1.7-.1.4-.1.8-.2 1.1-.1.4-.1.8-.2 1.1-.1.6-.2 1.1-.2 1.7 0 .2 0 .4-.1.7-.1.7-.1 1.4-.2 2.2v.3c0 .8-.1 1.7-.1 2.5V670.9c.4 59.1 23.7 114.6 65.5 156.5 42.3 42.3 98.4 65.5 158.2 65.5 59.8 0 115.9-23.3 158.2-65.5 41.9-41.8 65.1-97.4 65.5-156.5v-1.6-.3zm-321.9-53L774 324.3 872.2 616H675.9zm-548.1 0L226 324.3 324.1 616H127.8z"/></svg>