<svg xmlns="http://www.w3.org/2000/svg" viewBox="0 0 1000 1000"><path d="M964.5 929H72V748.2l203.5-203.5L436.7 706c6.5 6.5 15.7 10.2 25.3 10.2s18.8-3.7 25.3-10.2l317.9-318 .5 81.5c.2 19.6 16.2 35.5 35.7 35.5h.2c19.7 0 35.6-16.4 35.4-36.1l-1.1-163c.1-1.2.2-2.4.2-3.6 0-9.6-3.7-18.5-10.5-25.3-6.6-6.5-15.4-10.2-24.7-10.4h-.4L661 265.4c-19.5 0-35.5 15.9-35.7 35.4 0 9.6 3.6 18.6 10.3 25.4s15.7 10.6 25.2 10.7l93.8.6L462 630.1 300.7 468.8c-6.5-6.5-15.7-10.2-25.3-10.2-9.6 0-18.8 3.7-25.3 10.2L72 647V35.5C72 15.8 56.2-.2 36.5-.2S1 15.8 1 35.5v693a35.53 35.53 0 0 0 0 9.2v226.8c0 19.7 15.8 35.5 35.5 35.5h928c19.7 0 35.7-15.8 35.7-35.5s-16-35.5-35.7-35.5z"/></svg>