<svg xmlns="http://www.w3.org/2000/svg" viewBox="0 0 1000 1000"><path d="M693.2 272h-651c-17.9 0-32.5 14.6-32.5 32.5v656.1c0 11.7 6.3 22.6 16.6 28.3 10.2 5.8 22.8 5.5 32.8-.6l91.6-55.7 91.9 55.8c10.4 6.3 23.5 6.3 33.9-.1l91.2-56.1 91.4 56.1c5.2 3.2 11.1 4.8 17 4.8 5.8 0 11.6-1.5 16.8-4.7l92.7-55.8 89 55.5c10 6.2 22.6 6.6 32.9.9 10.3-5.7 16.7-16.6 16.8-28.4l1.4-656.1c0-8.6-3.4-16.9-9.5-23-6-6-14.3-9.5-23-9.5zm-33.7 630.1L603.2 867c-10.4-6.5-23.5-6.6-34-.3l-92.9 55.9-91.6-56.2c-5.2-3.2-11.1-4.8-17-4.8s-11.8 1.6-17 4.8l-91.3 56.1-91.9-55.7c-10.4-6.3-23.4-6.3-33.8 0l-59 35.9V337h585.9l-1.1 565.1zm189.7-751.7c6.1 6.1 9.5 14.4 9.5 23l-1.3 632.1c0 17.9-14.6 32.4-32.5 32.4h-.1c-17.9 0-32.5-14.6-32.4-32.6l1.3-599.6H203.2c-17.9 0-32.5-14.6-32.5-32.5s14.6-32.5 32.5-32.5h623c8.6.1 16.9 3.6 23 9.7zM990.8 42.3l-1.3 632.1c0 17.9-14.6 32.4-32.5 32.4h-.1c-17.9 0-32.5-14.6-32.4-32.6l1.3-599.6H335.3c-17.9 0-32.5-14.6-32.5-32.5s14.6-32.5 32.5-32.5h623c8.6 0 16.9 3.4 23 9.5 6.1 6.3 9.5 14.6 9.5 23.2zM154.3 460.5c0-17.9 14.6-32.5 32.5-32.5h361c17.9 0 32.5 14.6 32.5 32.5S565.7 493 547.8 493h-361c-18 0-32.5-14.5-32.5-32.5zm0 144.5c0-17.9 14.6-32.5 32.5-32.5h170.5c17.9 0 32.5 14.6 32.5 32.5s-14.6 32.5-32.5 32.5H186.8c-18 0-32.5-14.5-32.5-32.5zm427 0c0 17.9-14.6 32.5-32.5 32.5h-39c-17.9 0-32.5-14.6-32.5-32.5s14.6-32.5 32.5-32.5h39c17.9 0 32.5 14.6 32.5 32.5zm-427 144.5c0-17.9 14.6-32.5 32.5-32.5h170.5c17.9 0 32.5 14.6 32.5 32.5S375.2 782 357.3 782H186.8c-18 0-32.5-14.5-32.5-32.5zm427 0c0 17.9-14.6 32.5-32.5 32.5h-39c-17.9 0-32.5-14.6-32.5-32.5s14.6-32.5 32.5-32.5h39c17.9 0 32.5 14.6 32.5 32.5z"/></svg>