<svg xmlns="http://www.w3.org/2000/svg" viewBox="0 0 1000 1000"><path d="M404.5 656.6c-3.7 0-7.3-1.3-10.3-3.9l-33.9-30c-3.1-2.7-5-6.6-5.2-10.7-.3-4.1 1.2-8.2 3.9-11.3l103.9-117.1v-250c0-8.6 7-15.6 15.6-15.6h45.2c8.6 0 15.6 7 15.6 15.6v273c0 3.8-1.4 7.5-3.9 10.3L416.2 651.3c-3.1 3.5-7.3 5.3-11.7 5.3z"/><path d="M917.1 726.2c-5-.1-9.6-2.6-12.5-6.7l-59.7-83.2c-3.3-4.8-3.7-11-1-16.1s8-8.4 13.8-8.4h25.9l1-109c0-102-40.2-198.5-113.1-271.6-72.5-72.3-168.8-112.1-271.1-112.1-89.4 0-176.3 31.4-244.7 88.3-2.9 2.4-6.4 3.6-10 3.6-4 0-8-1.5-11-4.6L200 171.7c-3.1-3.1-4.7-7.3-4.6-11.7s2.2-8.4 5.5-11.2c38.3-32.5 81.5-58.2 128.5-76.5C383.6 51.2 441.3 40.5 501 40.5c125.1 0 241.6 47.6 327.9 133.9C915.4 260.7 963 377.1 963 502.3v109.3h19.7c5.9 0 11.3 3.4 14 8.7 2.6 5.3 2 11.6-1.5 16.3L929.8 720c-2.9 3.9-7.5 6.2-12.4 6.2h-.3zM501 959.5c-125 0-241.5-47.6-327.9-134.1C86.5 739 38.9 622.5 38.9 497.5V388.2H17.3c-5.9 0-11.4-3.4-14-8.7-2.6-5.3-2-11.7 1.6-16.4l66.9-84.2c3-3.8 7.5-6.1 12.3-6.1h.6c5 .2 9.7 2.8 12.4 7l57.3 84.2c3.1 4.8 3.4 10.9.7 16-2.7 5-8 8.2-13.7 8.2h-23.2l-1 109c0 102.1 40.2 198.5 113.1 271.4 72.5 72.5 168.7 112.3 270.9 112.3 89.4 0 176.4-31.4 244.8-88.5 2.9-2.4 6.4-3.6 10-3.6 4 0 8 1.5 11 4.6l34.7 34.8c3.1 3.1 4.7 7.3 4.5 11.7-.2 4.4-2.2 8.4-5.5 11.2-82.5 69.9-189 108.4-299.7 108.4z"/></svg>