<svg xmlns="http://www.w3.org/2000/svg" viewBox="0 0 1000 1000"><path d="M358.8 489.8c0-19.3 15.7-35 35-35h36c19.3 0 35 15.7 35 35s-15.7 35-35 35h-36c-19.3 0-35-15.7-35-35zm-128-103.1h36c19.3 0 35-15.7 35-35s-15.7-35-35-35h-36c-19.3 0-35 15.7-35 35s15.7 35 35 35zm163 0h36c19.3 0 35-15.7 35-35s-15.7-35-35-35h-36c-19.3 0-35 15.7-35 35s15.7 35 35 35zm0 276.2h36c19.3 0 35-15.7 35-35s-15.7-35-35-35h-36c-19.3 0-35 15.7-35 35s15.7 35 35 35zm-163-138.1h36c19.3 0 35-15.7 35-35s-15.7-35-35-35h-36c-19.3 0-35 15.7-35 35s15.7 35 35 35zm491.6 138.1h36c19.3 0 35-15.7 35-35s-15.7-35-35-35h-36c-19.3 0-35 15.7-35 35s15.6 35 35 35zm0 143h36c19.3 0 35-15.7 35-35s-15.7-35-35-35h-36c-19.3 0-35 15.7-35 35s15.6 35 35 35zm221.9-437.6v590c0 19.3-15.7 35-35 35H98c-19.3 0-35-15.7-35-35V251.1c0-13.8 8.1-26.3 20.7-31.9L557 6.8c10.8-4.9 23.4-3.9 33.3 2.6 10 6.5 16 17.5 16 29.4v181.9l315 114.8c13.9 4.9 23 18.1 23 32.8zM133 923.3h80.8V761.1c0-19.3 15.7-35 35-35h171.7c19.3 0 35 15.7 35 35v162.2h80.8V92.8L133 273.8v649.5zm252.6 0V796.1H283.8v127.2h101.8zm488.7-530.5l-268-97.7v628.2h268V392.8zM230.8 662.9h36c19.3 0 35-15.7 35-35s-15.7-35-35-35h-36c-19.3 0-35 15.7-35 35s15.7 35 35 35zm491.6-138.1h36c19.3 0 35-15.7 35-35s-15.7-35-35-35h-36c-19.3 0-35 15.7-35 35s15.6 35 35 35z"/></svg>