<svg xmlns="http://www.w3.org/2000/svg" viewBox="0 0 600 600"><path d="M230.6 591.3c-4.4 0-8.7-1-12.8-2.9L126 544.2c-11.8-5.7-18.6-18.7-16.3-31.7l10.5-60.6c-2.8-3.3-5.5-6.7-8.1-10.1l-61.4-3.2c-13.1-.7-24.3-10.1-27.3-22.9L.8 316.3c-2.9-12.8 3.1-26.2 14.6-32.5l53.9-29.5c.8-4.2 1.8-8.4 2.9-12.6l-35.7-50c-7.6-10.7-7.3-25.3.9-35.6l63.5-79.7c5.7-7.1 14.1-11.2 23.1-11.2 3.9 0 7.8.8 11.4 2.3L192 91.1c4.1-2.1 8.3-4.1 12.4-6l16.1-56.9c3.6-12.7 15.3-21.5 28.5-21.5h101.8c13.1 0 24.9 8.8 28.5 21.5l16.1 56.9c4.2 1.9 8.3 3.9 12.4 6 0 0 56.7-23.7 56.8-23.7 3.6-1.5 7.4-2.2 11.3-2.2 9.1 0 17.6 4.1 23.2 11.1l63.5 79.6c8.2 10.3 8.6 25 1 35.7l-35.8 50c1.1 4.2 2 8.4 2.9 12.6l53.9 29.5c11.5 6.3 17.6 19.7 14.6 32.5l-22.7 99.4c-2.9 12.8-14.2 22.3-27.3 23l-61.4 3.3c-2.5 3.4-5.2 6.7-8.1 10.1l10.5 60.6c2.3 12.9-4.4 26-16.3 31.7l-91.8 44.2c-3.9 1.9-8.4 3-12.8 3-8.4 0-16.5-3.6-22.1-9.9l-40.8-46c-2.1.1-4.2.1-6.3.1-2.2 0-4.4 0-6.6-.1l-40.8 46c-5.6 6.1-13.6 9.7-22.1 9.7zm-7.3-65.9l35.5-40c5.7-6.4 13.5-9.9 22.1-9.9.8 0 1.6 0 2.4.1h.1c5.4.5 11 .7 16.5.7 5.6 0 11.1-.2 16.5-.7.9-.1 1.7-.1 2.5-.1 8.5 0 16.5 3.6 22.2 9.9l35.5 40 51.5-24.8-9.1-52.7c-1.6-9.2 1.3-18.8 7.8-25.6 7.6-7.9 14.4-16.5 20.5-25.6 5.1-7.8 13.8-12.8 23.2-13.2l53.4-2.9 12.7-55.8-46.9-25.7c-8.2-4.5-13.9-12.8-15.1-22.1-1.5-11-3.9-21.7-7.3-31.9-2.9-8.9-1.4-18.7 4-26.4l31.1-43.5-35.6-44.7-49.4 20.7c-3.6 1.5-7.5 2.2-11.3 2.2-5.4 0-10.7-1.5-15.3-4.3-9.5-5.7-19.5-10.6-30-14.4-8.9-3.3-15.7-10.6-18.3-19.7l-14-49.3h-57.1l-14 49.3c-2.6 9.1-9.4 16.5-18.3 19.7-10.3 3.8-20.3 8.6-29.9 14.4 0 0-.1 0-.1.1-4.6 2.8-9.9 4.2-15.3 4.2-3.9 0-7.8-.8-11.4-2.3l-49.3-20.6-35.6 44.7 31.1 43.5c5.5 7.6 7 17.5 4 26.4-3.3 10.2-5.8 20.9-7.2 31.9-1.2 9.3-6.9 17.5-15.1 22l-46.9 25.7 12.7 55.7 53.4 2.8c9.3.5 18 5.4 23.1 13.3 5.9 8.9 12.8 17.6 20.5 25.6 6.5 6.7 9.4 16.3 7.8 25.5l-9.2 52.7 51.6 25.1zM300 406.6c-58.7 0-106.4-47.8-106.4-106.4 0-58.7 47.8-106.4 106.4-106.4 58.7 0 106.4 47.7 106.4 106.4S358.7 406.6 300 406.6zm0-153.6c-26.1 0-47.3 21.2-47.3 47.2 0 26.1 21.2 47.3 47.3 47.3 26.1 0 47.3-21.2 47.3-47.3-.1-26.1-21.2-47.2-47.3-47.2z"/></svg>