<svg xmlns="http://www.w3.org/2000/svg" id="Layer_1" viewBox="0 0 1000 1000"><path d="M500 101c-220 0-399 179-399 399s179.1 399 399 399 399-179 399-399-179-399-399-399m0 896.5C225.7 997.5 2.5 774.3 2.5 500S225.7 2.5 500 2.5 997.5 225.7 997.5 500 774.3 997.5 500 997.5m-58.9-218.2v-390h118.6v390H441.1zM500 341.8c-19.1 0-35.3-6.4-47.9-18.9-12.7-12.6-19.1-28.9-19.1-48.5 0-19.7 6.5-35.9 19.2-48.2 12.5-12.3 28.6-18.5 47.8-18.5 19.6 0 35.9 6.3 48.3 18.6 12.4 12.4 18.7 28.6 18.7 48.1 0 19.4-6.2 35.7-18.6 48.4-12.4 12.6-28.7 19-48.4 19z"/></svg>
