<svg xmlns="http://www.w3.org/2000/svg" viewBox="0 0 1000 1000"><path d="M978 479.7L766 180.2c-6.6-9.3-17.3-14.8-28.7-14.8H39.7c-9.3 0-18.2 3.7-24.8 10.3-6.6 6.6-10.3 15.6-10.3 24.9l.1 599.1c0 9.3 3.7 18.2 10.3 24.8 6.6 6.6 15.5 10.3 24.8 10.3l697.7-.1c11.4.1 22.1-5.5 28.6-14.8l212-299.5c8.5-12.3 8.5-28.5-.1-40.7zM719.2 764.4l-644.4.1V235.6h644.3L906.3 500 719.2 764.4zm-1.7-264.3c0-12.9 5.1-25 14.1-34.1 9.1-9.1 21.2-14.1 34.1-14.1 12.9 0 25 5 34.1 14.1 9.1 9.1 14.1 21.2 14.1 34.1 0 12.9-5.1 25-14.1 34.1s-21.2 14.1-34.1 14.1c-12.9 0-25-5.1-34.1-14.1-9-9.1-14.1-21.3-14.1-34.1zM162 425.9c0-18.8 15.2-34 34-34h248c18.8 0 34 15.2 34 34s-15.2 34-34 34H196c-18.8 0-34-15.2-34-34zm428 148.2c0 18.8-15.2 34-34 34H196c-18.8 0-34-15.2-34-34s15.2-34 34-34h360c18.8 0 34 15.2 34 34z"/></svg>