<svg xmlns="http://www.w3.org/2000/svg" viewBox="0 0 1000 1000"><path d="M997.2 919.4L786.3 708.5C810.9 677 830.8 642.3 846 605c21.3-52.4 32-107.8 32-164.6s-10.8-112.2-32-164.6c-22-54.3-54.4-103-96.1-144.8-41.8-41.8-90.5-74.2-144.9-96.2-52.4-21.3-107.8-32-164.6-32s-112.2 10.8-164.6 32c-54.3 22-103 54.4-144.8 96.1-41.8 41.8-74.1 90.5-96.1 144.8-21.3 52.4-32 107.8-32 164.6s10.8 112.2 32 164.6c22 54.3 54.4 103 96.1 144.8s90.5 74.1 144.8 96.1c52.4 21.3 107.8 32 164.6 32s112.2-10.8 164.6-32c37.3-15.1 71.9-35.1 103.5-59.6l210.9 210.9 77.8-77.7zM440.4 768c-87.5 0-169.8-34.1-231.7-96-61.9-61.9-96-144.2-96-231.7s34.1-169.8 96-231.7c61.9-61.9 144.2-96 231.7-96s169.8 34.1 231.7 96c61.9 61.9 96 144.2 96 231.7S734 610.1 672.1 672c-61.9 61.9-144.2 96-231.7 96z"/></svg>