<svg xmlns="http://www.w3.org/2000/svg" viewBox="0 0 1000 1000"><path d="M987.9 937L755.4 704.4c29.4-34.5 52.8-73.2 69.9-115.3 20.7-51.1 31.2-105 31.2-160.4 0-55.3-10.5-109.3-31.2-160.4-21.5-52.9-53-100.3-93.6-141-40.7-40.7-88.1-72.2-141-93.6C539.6 13 485.7 2.5 430.3 2.5S320.9 13.1 269.9 33.8c-52.9 21.5-100.3 53-141 93.6-40.7 40.7-72.2 88.1-93.6 141C14.5 319.5 4 373.4 4 428.8c0 55.3 10.5 109.3 31.2 160.4 21.5 52.9 53 100.3 93.6 141 40.7 40.7 88.1 72.2 141 93.6 51.1 20.7 105 31.2 160.4 31.2s109.3-10.5 160.4-31.2c42.1-17.1 80.7-40.5 115.3-69.9l232.6 232.6c6.8 6.8 15.8 10.3 24.7 10.3 9 0 17.9-3.4 24.7-10.3 13.7-13.7 13.7-35.8 0-49.5zM430.2 785c-95.1 0-184.6-37.1-251.9-104.3-15.2-15.2-28.9-31.6-40.9-48.9l162.4-163.7 99.9 99.9c6.6 6.6 15.5 10.3 24.7 10.3 9.3 0 18.2-3.7 24.7-10.2L601.2 416l-.4 52.3c-.2 19.3 15.4 35.1 34.7 35.3h.3c19.2 0 34.8-15.5 35-34.7l1.1-137.9c.1-9.4-3.6-18.4-10.2-25-6.6-6.6-15.7-10.3-25-10.3l-147.1 1c-19.3.1-34.9 15.9-34.8 35.2.1 19.2 15.8 34.8 35 34.8h.3l61.9-.4-127.6 127.5-100-100c-6.6-6.6-15.5-10.3-24.8-10.3h-.1c-9.3 0-18.2 3.7-24.8 10.4L102.1 568C83.7 524.5 74 477.4 74 428.8c0-95.1 37.1-184.6 104.3-251.9C245.6 109.6 335 72.6 430.2 72.6c95.1 0 184.6 37.1 251.9 104.3 67.3 67.3 104.3 156.7 104.3 251.9s-37.1 184.6-104.3 251.9C614.8 747.9 525.4 785 430.2 785z"/></svg>