<svg xmlns="http://www.w3.org/2000/svg" viewBox="0 0 1000 1000"><path d="M413.3 803c-18.7 0-33.9-15.2-33.9-33.9V332.7c0-18.7 15.2-33.9 33.9-33.9s33.9 15.2 33.9 33.9v436.2c0 18.8-15.2 34.1-33.9 34.1zm405.6-494.4c-6.2-6.4-14.7-9.9-23.9-9.9-18.7 0-33.9 15.2-33.9 33.9V862c0 17.7-14.4 32.1-32.1 32.1H270.7c-17.7 0-32.1-14.4-32.1-32.1V332.7c0-18.7-15.2-33.9-33.9-33.9s-33.9 15.2-33.9 33.9V862c0 55.2 44.9 100.1 100.1 100.1h458c55.2 0 100.1-44.9 100.1-100.1V332.7c-.1-9-3.6-17.5-10.1-24.1zM893.7 202c0 18.7-15.2 33.9-33.9 33.9h-723c-17.4-1.8-30.5-16.3-30.5-33.8 0-18.8 15.2-34.1 33.9-34.1h156.3V71.8c0-18.7 15.2-33.9 33.9-33.9h338.8c18.7 0 33.9 15.2 33.9 33.9V168h156.5c18.8 0 34.1 15.3 34.1 34zm-529.1-96.1v62.3h270.8v-62.3H364.6zm256.1 663V332.7c0-18.7-15.2-33.9-33.9-33.9s-33.9 15.2-33.9 33.9V769c0 18.7 15.2 33.9 33.9 33.9s33.9-15.2 33.9-34z"/></svg>