<svg xmlns="http://www.w3.org/2000/svg" viewBox="0 0 1000 1000"><path d="M367 212.3h576c30.4 0 55-24.6 55-55s-24.6-55-55-55H367c-30.4 0-55 24.6-55 55s24.6 55 55 55zM145 102.3H57c-30.4 0-55 24.6-55 55s24.6 55 55 55h88c30.4 0 55-24.6 55-55s-24.6-55-55-55zM943 445H367c-30.4 0-55 24.6-55 55s24.6 55 55 55h576c30.4 0 55-24.6 55-55s-24.6-55-55-55zM145 445H57c-30.4 0-55 24.6-55 55s24.6 55 55 55h88c30.4 0 55-24.6 55-55s-24.6-55-55-55zM943 786.5H367c-30.4 0-55 24.6-55 55s24.6 55 55 55h576c30.4 0 55-24.6 55-55s-24.6-55-55-55zM145 786.5H57c-30.4 0-55 24.6-55 55s24.6 55 55 55h88c30.4 0 55-24.6 55-55s-24.6-55-55-55z"/></svg>