<svg xmlns="http://www.w3.org/2000/svg" viewBox="0 0 1000 1000"><path d="M985.1 941.9L749 705.8c30.4-35.1 54.6-74.5 72.1-117.6 20.6-50.8 31-104.4 31-159.4s-10.4-108.7-31-159.4c-21.3-52.6-52.6-99.8-93.1-140.2-40.5-40.5-87.7-71.8-140.3-93.2C537 15.4 483.3 5 428.3 5S319.6 15.4 268.8 36c-52.6 21.3-99.8 52.6-140.2 93.1-40.4 40.4-71.8 87.6-93.1 140.2-20.6 50.8-31 104.4-31 159.4s10.4 108.7 31 159.4c21.3 52.6 52.6 99.8 93.1 140.2 40.4 40.4 87.6 71.8 140.2 93.1 50.8 20.6 104.4 31 159.4 31s108.7-10.4 159.4-31c43-17.4 82.4-41.5 117.4-71.9l236.1 236.1c6.1 6.1 14 9.1 21.9 9.1 7.9 0 15.9-3 21.9-9.1 12.3-11.9 12.3-31.6.2-43.7zM428.3 790.5c-96.6 0-187.5-37.6-255.8-106-68.3-68.3-106-159.2-106-255.8 0-96.6 37.6-187.5 106-255.8 68.3-68.3 159.2-106 255.8-106 96.6 0 187.5 37.6 255.8 106 68.3 68.3 106 159.2 106 255.8 0 95.8-37 186-104.3 254.1-.6.5-1.2 1.1-1.8 1.7-.6.6-1.1 1.2-1.6 1.8-68.3 67.3-158.3 104.2-254.1 104.2zM640 319.4L447.8 164.2c-11.4-9.2-27.6-9.2-39 0L216.6 319.4c-7.3 5.9-11.5 14.8-11.5 24.1v252.8c0 17.1 13.9 31 31 31h125.5c17.1 0 31-13.9 31-31v-128h67.2v127.9c0 17.1 13.9 31 31 31l129.8.1c8.2 0 16.1-3.3 21.9-9.1 5.8-5.8 9.1-13.7 9.1-21.9V343.5c-.1-9.3-4.3-18.2-11.6-24.1zm-50.5 245.9h-67.8V437.4c0-17.1-13.9-31-31-31H361.6c-17.1 0-31 13.9-31 31v128H267v-207l161.2-130.2 161.2 130.2v206.9z"/></svg>