<?xml version="1.0" encoding="utf-8"?>
<!-- Generator: Adobe Illustrator 19.2.1, SVG Export Plug-In . SVG Version: 6.00 Build 0)  -->
<svg version="1.1" id="Layer_1" xmlns="http://www.w3.org/2000/svg" xmlns:xlink="http://www.w3.org/1999/xlink" x="0px" y="0px"
	 viewBox="0 0 1000 1000" enable-background="new 0 0 1000 1000" xml:space="preserve">
<g>
	<g>
		<path d="M967.4,371.3c-5.1,0-10.2-1.2-15-3.6L500.2,134.8L48,367.6c-16.1,8.2-35.9,2-44.1-14.1c-8.3-16.1-2-35.9,14.1-44.1
			L485.2,68.8c9.4-4.8,20.6-4.8,30,0l467.2,240.6c16.1,8.3,22.4,28,14.1,44.1C990.8,364.8,979.3,371.3,967.4,371.3z"/>
		<path d="M500.2,934.9c-5.2,0-10.3-1.2-15-3.6L18,690.6c-16.1-8.3-22.4-28-14.1-44.1c8.3-16.1,28.1-22.4,44.1-14.1l452.2,232.9
			l452.2-232.9c16-8.3,35.9-2,44.1,14.1c8.3,16.1,2,35.9-14.1,44.1L515.2,931.2C510.5,933.6,505.4,934.9,500.2,934.9z"/>
	</g>
</g>
<g>
</g>
<g>
</g>
<g>
</g>
<g>
</g>
<g>
</g>
<g>
</g>
<g>
</g>
<g>
</g>
<g>
</g>
<g>
</g>
<g>
</g>
<g>
</g>
<g>
</g>
<g>
</g>
<g>
</g>
</svg>
