<svg xmlns="http://www.w3.org/2000/svg" viewBox="0 0 1000 1000"><path d="M964 1H335.9c-19.3 0-35 15.7-35 35v642.7c0 19.3 15.7 35 35 35H964c19.3 0 35-15.7 35-35V36c0-19.3-15.7-35-35-35zm-35 70v186.7H370.9V71H929zM370.9 643.7v-316H929v316H370.9zm436.2-479c0-19.3 15.7-35 35-35s35 15.7 35 35-15.7 35-35 35-35-15.7-35-35zm-115.3 0c0-19.3 15.7-35 35-35s35 15.7 35 35-15.7 35-35 35-35-15.7-35-35zm-108 0c0-19.3 15.7-35 35-35s35 15.7 35 35-15.7 35-35 35-35-15.7-35-35zm258.3 656.9c0 19.3-15.7 35-35 35H177.7c-19.3 0-35-15.7-35-35V202c0-19.3 15.7-35 35-35s35 15.7 35 35v584.5h594.5c19.2.1 34.9 15.7 34.9 35.1zM700.4 964.3c0 19.3-15.7 35-35 35H35.9c-19.3 0-35-15.7-35-35V344.8c0-19.3 15.7-35 35-35s35 15.7 35 35v584.5h594.5c19.3 0 35 15.6 35 35z"/></svg>