<?xml version="1.0" encoding="utf-8"?>
<!-- Generator: Adobe Illustrator 21.0.2, SVG Export Plug-In . SVG Version: 6.00 Build 0)  -->
<svg version="1.1" id="Layer_1" xmlns="http://www.w3.org/2000/svg" xmlns:xlink="http://www.w3.org/1999/xlink" x="0px" y="0px"
	 viewBox="0 0 1000 1000" style="enable-background:new 0 0 1000 1000;" xml:space="preserve">
<path d="M685.6,500c0,11.3-9.2,20.5-20.5,20.5H520.4l0,144.7c0,11.3-9.2,20.5-20.5,20.5c-11.3,0-20.5-9.2-20.5-20.5l0-144.7
	l-144.7,0c-11.3,0-20.5-9.2-20.5-20.5c0-11.3,9.2-20.5,20.5-20.5l144.7,0V334.8c0-11.3,9.2-20.5,20.5-20.5s20.5,9.2,20.5,20.5v144.7
	h144.7C676.5,479.6,685.6,488.7,685.6,500z M972.5,500c0,63.8-12.5,125.7-37.1,183.9c-23.8,56.3-57.9,106.8-101.3,150.2
	c-43.4,43.4-93.9,77.5-150.2,101.3C625.7,960,563.8,972.5,500,972.5c-63.8,0-125.7-12.5-183.9-37.1
	c-56.3-23.8-106.8-57.9-150.2-101.3c-43.4-43.4-77.5-93.9-101.3-150.2C40,625.7,27.5,563.8,27.5,500c0-63.8,12.5-125.7,37.1-183.9
	c23.8-56.3,57.9-106.8,101.3-150.2s93.9-77.5,150.2-101.3C374.3,40,436.2,27.5,500,27.5c63.8,0,125.7,12.5,183.9,37.1
	c56.3,23.8,106.8,57.9,150.2,101.3c43.4,43.4,77.5,93.9,101.3,150.2C960,374.3,972.5,436.2,972.5,500z M933.5,500
	c0-58.5-11.5-115.3-34.1-168.7c-21.8-51.6-53.1-98-92.9-137.8c-39.8-39.8-86.2-71.1-137.8-92.9C615.3,77.9,558.5,66.5,500,66.5
	s-115.3,11.5-168.7,34.1c-51.6,21.8-98,53.1-137.8,92.9c-39.8,39.8-71.1,86.2-92.9,137.8C77.9,384.7,66.5,441.5,66.5,500
	s11.5,115.3,34.1,168.7c21.8,51.6,53.1,98,92.9,137.8c39.8,39.8,86.2,71.1,137.8,92.9c53.4,22.6,110.2,34.1,168.7,34.1
	s115.3-11.5,168.7-34.1c51.6-21.8,98-53.1,137.8-92.9c39.8-39.8,71.1-86.2,92.9-137.8C922.1,615.3,933.5,558.5,933.5,500z"/>
</svg>
