<svg xmlns="http://www.w3.org/2000/svg" viewBox="0 0 1000 1000"><path d="M962.4 3.6H37.6c-18.8 0-34 15.2-34 34v924.9c0 18.8 15.2 34 34 34h924.9c18.8 0 34-15.2 34-34V37.6c-.1-18.8-15.3-34-34.1-34zm-34 68V320H71.6V71.6h856.8zM71.6 928.4V387.9h856.9v540.5H71.6zM759 193.5c0-28.2 22.8-51 51-51s51 22.8 51 51-22.8 51-51 51c-28.1 0-51-22.8-51-51zm-168.1 0c0-28.2 22.8-51 51-51s51 22.8 51 51-22.8 51-51 51-51-22.8-51-51zm-157.5 0c0-28.2 22.8-51 51-51s51 22.8 51 51-22.8 51-51 51c-28.1 0-51-22.8-51-51z"/></svg>