<?xml version="1.0" encoding="utf-8"?>
<!-- Generator: Adobe Illustrator 21.1.0, SVG Export Plug-In . SVG Version: 6.00 Build 0)  -->
<svg version="1.1" id="Layer_1" xmlns="http://www.w3.org/2000/svg" xmlns:xlink="http://www.w3.org/1999/xlink" x="0px" y="0px"
	 viewBox="0 0 1000 1000" style="enable-background:new 0 0 1000 1000;" xml:space="preserve">
<path d="M997.2,840.9c0,9-7.3,16.4-16.4,16.4H19.1c-9,0-16.4-7.3-16.4-16.4V159.1c0-9,7.3-16.4,16.4-16.4s16.4,7.3,16.4,16.4V472
	l228.2-119.6c3.7-1.9,7.9-2.4,11.9-1.3l219.3,60.1l384.5-233.7c7.7-4.7,17.8-2.2,22.5,5.5c4.7,7.7,2.2,17.8-5.5,22.5L505.9,442.8
	c-3.9,2.3-8.5,3-12.8,1.8l-219.9-60.2L35.5,508.9v130.6l230.9-72.1c3.7-1.2,7.8-1,11.4,0.6l220.3,95.1l384.6-128.5
	c8.6-2.9,17.8,1.8,20.7,10.3c2.9,8.6-1.8,17.8-10.3,20.7L502.6,696.1c-1.7,0.6-3.4,0.8-5.2,0.8c-2.2,0-4.4-0.4-6.5-1.3l-220.5-95.1
	L35.5,673.8v150.7h945.4C989.9,824.5,997.2,831.8,997.2,840.9z"/>
</svg>
