<?xml version="1.0" encoding="utf-8"?>
<!-- Generator: Adobe Illustrator 21.0.2, SVG Export Plug-In . SVG Version: 6.00 Build 0)  -->
<svg version="1.1" id="Layer_1" xmlns="http://www.w3.org/2000/svg" xmlns:xlink="http://www.w3.org/1999/xlink" x="0px" y="0px"
	 viewBox="0 0 1000 1000" style="enable-background:new 0 0 1000 1000;" xml:space="preserve">
<path d="M881,378.9c-56.9-50.2-115.3-90-173.8-118.4c-71.5-34.6-143.4-52.2-213.7-52.2c-70.8,0-142.5,17.9-212.8,53
	c-57.3,28.8-114.2,69-169,119.7C65.1,424.1,28.5,467.1,3.3,499.3c25.5,33.4,63.2,77.9,110.7,122c54.1,50.2,110.5,89.9,167.7,118.2
	c69.9,34.6,141.3,52.2,212.1,52.2c71.7,0,144.7-18.1,217-53.7c58.9-29.1,117.7-69.7,174.4-121.1c47.5-42.8,85.3-85.4,111.5-117.9
	C969.4,465.9,929.9,422.2,881,378.9z M500,690.6c-105.3,0-190.6-85.3-190.6-190.6S394.7,309.4,500,309.4S690.6,394.7,690.6,500
	S605.3,690.6,500,690.6z"/>
</svg>
