<svg xmlns="http://www.w3.org/2000/svg" viewBox="3408 -9206 1100 1100">
  <defs>
    <style>
      .cls-1 {
        fill: #0aaaff;
      }
    </style>
  </defs>
  <g id="Group_1" data-name="Group 1" transform="translate(2301.53 -13442.75)">
    <path id="uE005-settings-small" class="cls-1" d="M204.465,484.708a28.87,28.87,0,0,1-11.349-2.372L111.724,446.2c-10.462-4.671-16.492-15.286-14.452-25.917l9.31-49.555c-2.482-2.692-4.877-5.485-7.182-8.252L44.961,359.84c-11.615-.565-21.545-8.243-24.2-18.72L.718,259.854c-2.571-10.466,2.749-21.419,12.945-26.578l47.789-24.1c.709-3.449,1.6-6.887,2.571-10.324L32.37,157.968a22.785,22.785,0,0,1,.8-29.1l56.3-65.177A27.053,27.053,0,0,1,109.95,54.54a28.616,28.616,0,0,1,10.108,1.872l50.183,19.3c3.635-1.717,7.359-3.338,10.994-4.9L195.51,24.275C198.7,13.9,209.075,6.7,220.778,6.7h90.258c11.615,0,22.077,7.2,25.269,17.575L350.58,70.806c3.724,1.564,7.359,3.185,10.995,4.9,0,0,50.271-19.371,50.36-19.371a27.912,27.912,0,0,1,10.019-1.8,27.172,27.172,0,0,1,20.57,9.074l56.3,65.09a22.916,22.916,0,0,1,.887,29.191l-31.741,40.885c.975,3.424,1.774,6.871,2.571,10.29L518.33,233.2c10.2,5.144,15.6,16.117,12.945,26.575l-20.127,81.278c-2.571,10.455-12.59,18.224-24.2,18.789l-54.439,2.7c-2.216,2.785-4.61,5.488-7.181,8.255l9.31,49.557c2.039,10.553-3.9,21.274-14.452,25.922l-81.392,36.139a28.234,28.234,0,0,1-11.349,2.454,27.343,27.343,0,0,1-19.594-8.095l-36.174-37.607c-1.862.079-3.724.079-5.586.079-1.951,0-3.9,0-5.852-.079l-36.174,37.607A27.663,27.663,0,0,1,204.465,484.708Zm-6.472-53.885,31.475-32.7a26.824,26.824,0,0,1,19.594-8.093,17.09,17.09,0,0,1,2.128.089h.089c4.788.395,9.753.558,14.629.558,4.965,0,9.842-.163,14.63-.558a19.285,19.285,0,0,1,2.216-.089,27.52,27.52,0,0,1,19.683,8.093l31.475,32.7,45.661-20.287L371.5,367.452a23.181,23.181,0,0,1,6.916-20.936A156.049,156.049,0,0,0,396.6,325.589a26.633,26.633,0,0,1,20.57-10.8l47.346-2.356,11.26-45.628-41.583-21.011A24.408,24.408,0,0,1,420.8,227.717a134.576,134.576,0,0,0-6.473-26.084,22.877,22.877,0,0,1,3.546-21.583l27.574-35.56-31.563-36.549-43.8,16.919a28.287,28.287,0,0,1-23.584-1.716,158.645,158.645,0,0,0-26.6-11.781,25.211,25.211,0,0,1-16.225-16.1L291.265,54.944H240.639L228.226,95.261A25.023,25.023,0,0,1,212,111.362a160.99,160.99,0,0,0-26.51,11.781.086.086,0,0,0-.089.087,27.767,27.767,0,0,1-13.566,3.428,28.452,28.452,0,0,1-10.108-1.879l-43.711-16.839L86.455,144.49l27.574,35.56a22.383,22.383,0,0,1,3.547,21.583,134.407,134.407,0,0,0-6.384,26.084A24.237,24.237,0,0,1,97.8,245.7L56.221,266.726l11.26,45.534,47.346,2.293a26.647,26.647,0,0,1,20.481,10.873,151.586,151.586,0,0,0,18.176,20.926A22.964,22.964,0,0,1,160.4,367.2l-8.157,43.1Zm68-97.13c-52.045,0-94.337-39.088-94.337-87,0-48,42.381-87,94.337-87,52.044,0,94.336,39,94.336,87,0,24.427-36.893,68.974-36.893,68.974S291.55,333.693,266,333.693Zm0-125.6c-23.141,0-41.938,17.34-41.938,38.6,0,21.336,18.8,38.672,41.938,38.672s41.937-17.336,41.937-38.672C307.845,225.356,289.137,208.091,266,208.091Z" transform="translate(1674.522 4230.05)"/>
    <path id="market-insights" class="cls-1" d="M813.527,748.118,622.233,562.529a334.91,334.91,0,0,0,57.515-91.991,331.888,331.888,0,0,0,0-255.961,339,339,0,0,0-77.015-112.5A348.485,348.485,0,0,0,486.71,27.4a361.683,361.683,0,0,0-263.936.078,351.2,351.2,0,0,0-116.013,74.678,336.5,336.5,0,0,0-77,112.506,331.349,331.349,0,0,0-.093,255.953,338.988,338.988,0,0,0,77.019,112.5A348.669,348.669,0,0,0,222.691,657.8a362.326,362.326,0,0,0,263.951,0,350.807,350.807,0,0,0,94.866-55.771L772.873,787.609a29.3,29.3,0,0,0,20.322,8.223,28.79,28.79,0,0,0,20.332-8.223A27.3,27.3,0,0,0,813.527,748.118ZM354.661,626.838c-78.237,0-151.876-29.6-207.254-83.221A287.075,287.075,0,0,1,113.761,504.6L247.38,373.99l82.19,79.709a29.255,29.255,0,0,0,20.324,8.22h0a29.194,29.194,0,0,0,20.323-8.145L495.357,332.421l-.326,41.731c-.164,15.4,12.662,28.006,28.555,28.161h.24c15.8,0,28.638-12.364,28.8-27.683l.9-110.028a27.416,27.416,0,0,0-8.391-19.948,29.661,29.661,0,0,0-20.572-8.212l-121.023.8c-15.888.082-28.712,12.685-28.633,28.084.084,15.319,13.009,27.763,28.791,27.763h.248l50.932-.316L349.893,394.5l-82.284-79.792a29.267,29.267,0,0,0-20.394-8.217h-.085a29.027,29.027,0,0,0-20.406,8.3L84.709,453.7A277.1,277.1,0,0,1,61.6,342.634c0-75.876,30.52-147.29,85.811-200.983,55.378-53.7,128.933-83.219,207.254-83.219,78.252,0,151.889,29.6,207.252,83.219,55.385,53.693,85.82,125.022,85.82,200.983s-30.519,147.288-85.82,200.984h0C506.55,597.234,433,626.838,354.661,626.838Z" transform="translate(1102.47 4540.918)"/>
  </g>
</svg>
