<?xml version="1.0" encoding="utf-8"?>
<!-- Generator: Adobe Illustrator 22.0.1, SVG Export Plug-In . SVG Version: 6.00 Build 0)  -->
<svg version="1.1" id="Layer_1" xmlns="http://www.w3.org/2000/svg" xmlns:xlink="http://www.w3.org/1999/xlink" x="0px" y="0px"
	 viewBox="0 0 1000 1000" style="enable-background:new 0 0 1000 1000;" xml:space="preserve">
<path d="M864.8,497.7h-75V294.4c0-161.6-132.3-292.4-294.5-289.8C338.5,7.1,210.2,140,210.2,296.8v200.9h-75
	c-31.3,0-56.7,25.4-56.7,56.7v382.9c0,31.3,25.4,56.7,56.7,56.7h729.6c31.3,0,56.7-25.4,56.7-56.7V554.4
	C921.5,523.1,896.1,497.7,864.8,497.7z M371.2,296c0-69.7,54.7-128,124.4-130.3c73.2-2.5,133.3,56.1,133.3,128.7v203.3H371.2V296z"
	/>
</svg>
