<?xml version="1.0" encoding="utf-8"?>
<!-- Generator: Adobe Illustrator 21.1.0, SVG Export Plug-In . SVG Version: 6.00 Build 0)  -->
<svg version="1.1" id="Layer_1" xmlns="http://www.w3.org/2000/svg" xmlns:xlink="http://www.w3.org/1999/xlink" x="0px" y="0px"
	 viewBox="0 0 1000 1000" style="enable-background:new 0 0 1000 1000;" xml:space="preserve">
<path d="M674.3,628.7V61.1c0-24.8-20.2-46.5-46.5-46.5H60.1c-26.4,0-46.5,20.2-46.5,46.5v567.7c0,26.4,20.2,46.5,46.5,46.5h567.7
	C654.1,675.3,674.3,655.1,674.3,628.7z M581.2,582.2H106.6V107.6h474.6C581.2,107.6,581.2,582.2,581.2,582.2z M984.4,371.3v567.7
	c0,26.4-20.2,46.5-46.5,46.5H370.3c-26.4,0-46.5-20.2-46.5-46.5V770.3h93.1v122.1h474.6V417.8H761.3v-93.1h176.6
	C964.3,324.7,984.4,344.9,984.4,371.3z"/>
</svg>
