<?xml version="1.0" encoding="utf-8"?>
<!-- Generator: Adobe Illustrator 21.1.0, SVG Export Plug-In . SVG Version: 6.00 Build 0)  -->
<svg version="1.1" id="Layer_1" xmlns="http://www.w3.org/2000/svg" xmlns:xlink="http://www.w3.org/1999/xlink" x="0px" y="0px"
	 viewBox="0 0 1000 1000" style="enable-background:new 0 0 1000 1000;" xml:space="preserve">
<path d="M994.7,839.1c0,9-7.3,16.3-16.3,16.3H21.6c-9,0-16.3-7.3-16.3-16.3V160.9c0-9,7.3-16.3,16.3-16.3s16.3,7.3,16.3,16.3v662
	h164.4V526.7c0-9,7.3-16.3,16.3-16.3c9,0,16.3,7.3,16.3,16.3v296.1h165.3v-468c0-9,7.3-16.3,16.3-16.3c9,0,16.3,7.3,16.3,16.3v468
	H598V522.6c0-9,7.3-16.3,16.3-16.3s16.3,7.3,16.3,16.3v300.2h165.3V172.3c0-9,7.3-16.3,16.3-16.3c9,0,16.3,7.3,16.3,16.3v650.5
	h149.9C987.4,822.9,994.7,830.1,994.7,839.1z"/>
</svg>
