<?xml version="1.0" encoding="utf-8"?>
<!-- Generator: Adobe Illustrator 19.2.1, SVG Export Plug-In . SVG Version: 6.00 Build 0)  -->
<svg version="1.1" id="Layer_1" xmlns="http://www.w3.org/2000/svg" xmlns:xlink="http://www.w3.org/1999/xlink" x="0px" y="0px"
	 viewBox="0 0 1000 1000" enable-background="new 0 0 1000 1000" xml:space="preserve">
<g>
	<path d="M493.7,304.3c59.2,0,119.8,11.8,180,35c49.3,19,98.5,45.7,146.4,79.3c41.2,29,74.4,58.3,97.4,80.5
		c-22.1,21.8-53.9,50.3-93.9,79c-47.8,34.4-97.3,61.6-146.9,81.1c-60.9,23.9-122.4,36-182.8,36c-59.6,0-119.7-11.8-178.6-35
		c-48.1-19-95.6-45.6-141.2-79.2c-40-29.5-71.7-59.3-93.2-81.7c21.2-21.6,52-50.4,91.3-79.3c46.1-34,94-60.9,142.3-80.2
		C373.7,316.3,434.1,304.3,493.7,304.3 M493.7,244.1C198.6,244.1,0.1,499.1,0.1,499.1s195.6,256.5,493.6,256.5
		c298,0,506.4-256.9,506.4-256.9S788.8,244.1,493.7,244.1L493.7,244.1z"/>
	<path d="M495.3,410.7c49,0,88.9,39.9,88.9,88.9s-39.9,88.9-88.9,88.9s-88.9-39.9-88.9-88.9S446.3,410.7,495.3,410.7 M495.3,350.4
		c-82.4,0-149.2,66.8-149.2,149.2c0,82.4,66.8,149.2,149.2,149.2c82.4,0,149.2-66.8,149.2-149.2
		C644.5,417.2,577.7,350.4,495.3,350.4L495.3,350.4z"/>
</g>
</svg>
