<?xml version="1.0" encoding="utf-8"?>
<!-- Generator: Adobe Illustrator 21.1.0, SVG Export Plug-In . SVG Version: 6.00 Build 0)  -->
<svg version="1.1" id="Layer_1" xmlns="http://www.w3.org/2000/svg" xmlns:xlink="http://www.w3.org/1999/xlink" x="0px" y="0px"
	 viewBox="0 0 1000 1000" style="enable-background:new 0 0 1000 1000;" xml:space="preserve">
<path d="M961.1,152.5H38.9c-19,0-34.5,15.5-34.5,34.5V813c0,19,15.5,34.5,34.5,34.5h922.2c19,0,34.5-15.5,34.5-34.5V187
	C995.6,168,980.1,152.5,961.1,152.5z M356.7,649.9v-132h286.7v132H356.7z M643.4,682.7v132.1H356.7V682.7H643.4z M962.8,353.1v132
	H676.1v-132H962.8z M643.4,485.1H356.7v-132h286.7V485.1z M323.9,485.1H37.2v-132h286.7V485.1z M37.2,517.9h286.7v132H37.2V517.9z
	 M676.1,517.9h286.7v132H676.1V517.9z M38.9,185.3h922.2c0.9,0,1.7,0.8,1.7,1.7v133.3H37.2V187C37.2,186.1,38,185.3,38.9,185.3z
	 M37.2,813V682.7h286.7v132.1h-285C38,814.7,37.2,813.9,37.2,813z M961.1,814.7h-285V682.7h286.7V813
	C962.8,813.9,962,814.7,961.1,814.7z"/>
</svg>
