<?xml version="1.0" encoding="utf-8"?>
<!-- Generator: Adobe Illustrator 22.0.1, SVG Export Plug-In . SVG Version: 6.00 Build 0)  -->
<svg version="1.1" id="Layer_1" xmlns="http://www.w3.org/2000/svg" xmlns:xlink="http://www.w3.org/1999/xlink" x="0px" y="0px"
	 viewBox="0 0 1000 1000" style="enable-background:new 0 0 1000 1000;" xml:space="preserve">
<path d="M339,935.2c-108.6,0-197-88.4-197-197V530.5l-68.6,68.7c-5,5-11.5,7.5-18.1,7.5c-6.5,0-13.1-2.5-18-7.5l-14.9-14.8
	c-4.8-4.8-7.5-11.3-7.5-18c0-6.8,2.7-13.3,7.5-18.1L160,410.5c4.8-4.8,11.3-7.5,18.1-7.5c0,0,0,0,0,0c6.8,0,13.3,2.7,18.1,7.5
	l137.8,138.2c9.9,10,9.9,26.1,0,36.1L319,599.7c-5,5-11.5,7.5-18,7.5c-6.5,0-13.1-2.5-18.1-7.5l-68.7-68.8v207.8
	c0,68.9,56,124.9,124.9,124.9s124.9-56,124.9-124.9V261.7c0-108.6,88.4-197,197-197c108.6,0,197,88.4,197,197v207.8l68.7-68.8
	c5-5,11.5-7.5,18.1-7.5c6.5,0,13.1,2.5,18,7.5l14.9,14.8c4.8,4.8,7.5,11.3,7.5,18c0,6.8-2.7,13.3-7.5,18.1L839.9,589.4
	c-4.8,4.8-11.3,7.5-18.1,7.5s-13.3-2.7-18.1-7.5L666,451.6c-4.8-4.8-7.5-11.3-7.5-18.1c0-6.8,2.7-13.3,7.5-18l14.9-14.8
	c5-5,11.5-7.5,18-7.5c6.5,0,13.1,2.5,18.1,7.5l68.7,68.8V261.7c0-68.9-56-124.9-124.9-124.9S536,192.9,536,261.7v476.6
	C536,846.9,447.6,935.2,339,935.2z"/>
</svg>
