<?xml version="1.0" encoding="utf-8"?>
<!-- Generator: Adobe Illustrator 22.0.1, SVG Export Plug-In . SVG Version: 6.00 Build 0)  -->
<svg version="1.1" id="Layer_1" xmlns="http://www.w3.org/2000/svg" xmlns:xlink="http://www.w3.org/1999/xlink" x="0px" y="0px"
	 viewBox="0 0 1000 1000" style="enable-background:new 0 0 1000 1000;" xml:space="preserve">
<path d="M921.5,554.4v382.9c0,31.3-25.4,56.7-56.7,56.7H135.2c-31.3,0-56.7-25.4-56.7-56.7V554.4c0-31.3,25.4-56.7,56.7-56.7h75
	V296.8C210.2,140,338.5,7.1,495.3,4.6c162.2-2.6,294.5,128.2,294.5,289.8v42.3h-161v-42.3c0-72.6-60.1-131.2-133.3-128.7
	C425.9,168,371.2,226.3,371.2,296v201.8h493.6C896.1,497.7,921.5,523.1,921.5,554.4z"/>
</svg>
