<?xml version="1.0" encoding="utf-8"?>
<!-- Generator: Adobe Illustrator 19.2.1, SVG Export Plug-In . SVG Version: 6.00 Build 0)  -->
<svg version="1.1" id="Layer_1" xmlns="http://www.w3.org/2000/svg" xmlns:xlink="http://www.w3.org/1999/xlink" x="0px" y="0px"
	 viewBox="0 0 1000 1000" enable-background="new 0 0 1000 1000" xml:space="preserve">
<g>
	<path d="M138.1,197.7l96.2,96.3C88.2,369.5,0,482.9,0,482.9s195.6,256.5,493.6,256.5c57.4,0,111.4-9.5,161.3-24.9l129.6,129.6
		l42.6-42.6L180.7,155.1L138.1,197.7z M493.5,679.1c-59.6,0-119.7-11.8-178.6-35c-48.1-19-95.6-45.6-141.1-79.2
		c-40-29.5-71.7-59.4-93.2-81.7c21.1-21.6,52-50.3,91.3-79.3c35-25.8,71-47.5,107.5-64.9l80.9,80.9c-9,19.2-14.1,40.7-14.1,63.4
		c0,82.4,66.8,149.2,149.2,149.2c22.7,0,44.1-5.1,63.3-14.1l47.2,47.2C568.2,674.5,530.7,679.1,493.5,679.1z M511.1,570.7
		c-5.1,0.9-10.4,1.4-15.8,1.4c-49,0-88.9-39.9-88.9-88.9c0-5.4,0.5-10.7,1.4-15.8L511.1,570.7z"/>
	<path d="M493.5,227.8c-48.7,0-94.8,6.9-137.8,18.6l50.2,50.2c29.2-5.6,58.5-8.5,87.6-8.5c59.2,0,119.8,11.8,180,35
		c49.3,19,98.6,45.7,146.3,79.3c41.2,29,74.4,58.3,97.4,80.5c-22.1,21.8-53.9,50.3-93.9,79c-30.9,22.2-62.5,41.5-94.4,57.5
		l44.7,44.7C914,588.4,1000,482.5,1000,482.5S788.6,227.8,493.5,227.8z"/>
	<path d="M583.8,474.4l53.8,53.8c4.5-14.2,6.9-29.3,6.9-45c0-82.4-66.8-149.2-149.2-149.2c-15.7,0-30.8,2.4-45,6.9l53.8,53.8
		C546.1,398.9,579.6,432.4,583.8,474.4z"/>
</g>
</svg>
